<?xml version="1.0" encoding="UTF-8"?>
<svg width="960px" height="960px" viewBox="0 0 960 960" version="1.1" xmlns="http://www.w3.org/2000/svg" xmlns:xlink="http://www.w3.org/1999/xlink">
    <title>litter-robot</title>
    <g id="litter-robot" stroke="none" stroke-width="1" fill="none" fill-rule="evenodd">
        <path d="M812.928303,250.360716 C862.027353,378.33071 853.555,513.202999 792.9139,597.37153 L791.143,599.790623 L791.096512,600.228134 L791.035711,600.692757 L781.776,665.540623 L824.276498,690.344919 C843.435998,701.526762 851.859191,724.765471 844.394538,745.588951 L844.163468,746.219211 L830.914769,781.562655 C830.447283,782.809814 829.924658,784.035603 829.347793,785.237746 C818.030469,808.817675 805.340184,825.031417 790.168042,833.559263 C784.954017,836.489923 778.383431,839.544032 770.411264,842.752124 L769.106187,843.273709 L767.368694,843.957449 C758.576593,847.387838 748.21377,850.994346 736.227131,854.812984 L734.521,855.353623 L726.500649,868.114906 C717.659868,882.185565 705.176034,893.594516 690.379211,901.136499 L689.637449,901.51037 C653.202941,919.666778 617.938138,932.580155 583.828194,940.20419 L581.656897,940.683051 C545.911189,948.461882 496.385585,954.156094 432.829841,957.865663 C417.381687,958.76729 401.904959,956.672519 387.251752,951.696566 L375.227106,947.594333 C353.410515,940.114563 337.799582,934.539939 328.246672,930.811097 L326.526458,930.133555 C320.312366,927.662149 311.103983,923.609653 298.774035,917.930668 C258.747606,899.499652 229.734797,863.298984 220.463271,820.216844 L219.055539,813.657425 C214.886793,794.178379 211.224829,776.569317 208.06893,760.824807 L206.812879,754.52205 C204.206843,741.36615 201.977907,729.599363 200.125611,719.218194 L199.562851,716.040932 C194.090155,684.906455 187.761252,647.398125 180.574887,603.509723 L178.005,587.767623 L177.08003,586.539095 C134.128285,529.053342 112.449337,460.017067 112,380.078128 L112,377.576487 C112,344.6462 122.36574,306.445649 142.294807,268.182233 C164.263048,226.003641 197.049524,185.021886 239.678477,148.236425 C293.106568,102.13215 355.405411,61.8942621 426.530762,27.5035806 L427.833,26.8746225 L428.17089,26.6721658 C436.610161,21.6340589 445.443883,17.2955555 454.638524,13.682059 L455.954495,13.17078 C585.748622,-36.6768942 744.245038,71.3471697 812.928303,250.360716 Z M290.668259,585.05587 L289.070459,585.05587 C270.858137,585.080976 247.934264,586.001265 220.333757,587.820986 L218.560697,587.939406 L220.531923,599.992422 C227.495414,642.469534 233.638119,678.846014 238.958867,709.116056 L239.889637,714.344628 C241.690005,724.338259 243.842754,735.64001 246.347444,748.246614 L247.318636,753.112245 C250.613799,769.546928 254.476758,788.086432 258.906607,808.724058 L259.568493,811.803664 C266.190646,842.57492 286.914081,868.432541 315.506087,881.598335 L320.165317,883.734316 C329.560535,888.019833 336.643438,891.109796 341.308682,892.96521 L343.222776,893.717357 C353.761109,897.813433 372.794271,904.542785 400.114197,913.821013 C409.882631,917.138189 420.200449,918.534703 430.499169,917.933621 L434.663275,917.686432 C450.543031,916.727823 465.472209,915.642187 479.446395,914.431287 C466.437643,908.705749 456.147818,899.954545 449.286895,887.634658 C429.692512,852.449803 413.718993,758.536002 400.514607,603.835984 L399.944,597.094623 L397.359336,596.646924 C359.787647,590.160338 329.971609,586.422113 307.998648,585.424227 L307.276759,585.392308 C302.282718,585.177516 296.746098,585.065352 290.668259,585.05587 Z M421.527148,614.620211 L421.63955,615.88904 C434.345704,759.207425 449.644093,847.169395 466.760072,877.903877 C474.224352,891.307188 488.464218,898.928896 508.482873,901.791389 C523.023084,903.870513 536.042261,903.37064 555.447104,901.233014 C593.7833,897.009922 645.913705,880.435004 681.122205,859.745211 C685.632203,856.130217 689.529141,851.771512 692.63278,846.831876 L694.417915,843.990391 L691.697258,844.54299 C656.933559,851.544048 627.998345,855.055622 604.814286,855.055622 C576.314697,855.055622 539.128718,844.059181 492.862882,822.25724 C482.303503,817.282169 475.034432,807.238137 473.608554,795.651384 L466.074692,734.356964 C465.375793,728.670818 469.587421,723.56103 475.302401,723.16138 C476.941382,723.046765 478.573784,722.930492 480.199609,722.81256 L480.457747,722.29358 L481.336877,722.729717 L485.374489,722.429915 C551.09888,717.476877 605.883423,709.766577 649.681618,699.328079 L652.153477,698.73627 C692.310784,689.077785 721.863012,679.79859 740.583914,671.057603 L744.627729,642.760011 C741.59196,645.249177 738.487672,647.65059 735.31569,649.961147 L735.30949,649.953439 C698.551086,679.289631 655.258338,694.055623 605.717087,694.055623 C542.254082,694.055623 480.803203,667.431251 421.527148,614.620211 Z M487.922441,748.173417 L493.45899,793.210041 C494.032066,797.866878 496.898023,801.918936 501.07947,804.015201 L501.387763,804.165076 L504.006913,805.392017 C546.605297,825.227796 580.329147,835.055622 604.814286,835.055622 C632.98882,835.055622 671.157266,829.395773 719.152445,818.028316 L719.204007,818.238166 L721.875958,817.400033 C725.398719,816.288468 728.761974,815.200786 731.964019,814.138143 L733.464783,813.637978 C741.652942,810.897369 748.750847,808.327041 754.728595,805.947276 L755.803108,805.516696 L757.159188,804.964831 C762.722839,802.680275 767.202187,800.58222 770.568914,798.689875 C777.254898,794.931867 785.196146,784.785731 793.285604,767.931142 C793.349629,767.79772 793.407698,767.661521 793.459735,767.522698 L796.239036,760.10884 C780.968626,765.335923 762.183037,770.816415 742.567676,775.727541 C688.218707,789.33497 639.123107,796.116752 612.527415,791.701942 C578.537763,786.059756 537.050221,771.538535 487.922441,748.173417 Z M746.226066,690.463331 L746.021915,690.555443 C725.995977,699.471426 696.770627,708.529911 658.160512,717.861091 L654.318382,718.783166 L651.695187,719.402229 C614.360054,728.126766 569.663699,734.916648 517.580172,739.788095 L520.158382,740.922499 C557.41939,757.234146 589.327723,767.577181 615.802542,771.971926 C638.603742,775.756861 685.000392,769.417242 736.158498,756.7133 L737.710182,756.326388 C759.972101,750.75264 781.084572,744.439418 796.743042,738.721042 L798.468921,738.084879 C801.016035,737.137069 803.374087,736.218831 805.524349,735.338588 L806.708285,732.17965 C807.734096,729.442816 806.638609,726.365017 804.114301,724.891783 L749.994157,693.306253 C748.609942,692.498399 747.349301,691.541222 746.226066,690.463331 Z M384.385408,94.9645784 L382.565102,96.0258053 C379.554262,97.7716121 376.563515,99.5299553 373.592855,101.300833 C308.296879,177.721528 291.559034,309.696684 340.883297,438.190783 C405.590142,606.757877 558.795631,703.701956 681.946427,656.428795 C693.199939,652.108976 703.834151,646.726292 713.818901,640.382437 C709.176104,642.706431 704.399443,644.814341 699.492284,646.698023 C581.740282,691.898782 433.436861,590.871234 368.247322,421.046679 C320.872366,297.630699 330.429866,171.844517 384.385408,94.9645784 Z M470.295326,50.5116503 C469.011373,51.0047546 467.736635,51.5157683 466.471193,52.0446082 C465.893627,52.2789739 465.32234,52.5238557 464.75308,52.7723707 L465.241,52.565 L464.431,52.917 L461.733934,54.1332133 C362.739943,100.171889 327.000292,257.78593 386.918931,413.87932 C448.591209,574.541098 586.651351,668.590699 692.324925,628.026414 C715.908753,618.973431 736.204961,603.858439 752.82079,584.052243 C753.117566,583.585972 753.439701,583.135661 753.782368,582.696631 L754.038146,582.375722 C811.838549,511.353371 821.956623,385.556537 775.582741,264.689324 C713.931926,104.004899 575.923897,9.94480218 470.295326,50.5116503 Z M771.347409,274.628749 C825.231624,415.001928 791.008076,559.927951 692.32919,597.807226 C595.710439,634.89569 476.343512,554.372836 420.822206,419.230823 C418.858996,414.693444 416.982468,410.096828 415.196491,405.444197 C403.571537,375.160159 396.599564,344.613761 393.975316,315.224816 C382.403695,209.684809 420.169205,116.587207 496.376819,87.333845 C595.055704,49.4545699 717.463194,134.25557 771.347409,274.628749 Z M773.837,438.302623 L773.69121,438.48693 C752.104946,465.269221 713.902029,483.214714 659.415687,492.909617 L657.689654,493.213029 C603.150657,502.683921 542.660618,498.251229 476.25176,480.025701 C533.498889,562.900709 617.256435,605.202057 685.161831,579.135617 C735.669885,559.747392 767.386331,506.382373 775.01185,439.205143 L773.837,438.302623 Z M330.355848,128.918127 L329.768612,129.331808 C307.103306,144.887498 285.784963,161.283967 265.810878,178.520044 C226.963506,212.042296 197.366502,249.037342 177.771293,286.659758 C160.674145,319.485945 152,351.452513 152,377.576487 C152,452.434814 172.249515,515.428955 212.707548,567.291173 C212.949748,567.601642 213.182323,567.918677 213.405071,568.241811 L218.399245,567.904732 C257.143128,565.337963 287.02541,564.502816 308.136157,565.41078 L309.696029,565.481667 C332.485278,566.571933 362.717914,570.377084 400.477863,576.889423 C368.602783,540.25129 341.570305,495.789062 322.211689,445.358142 C278.188846,330.674714 284.311059,212.375383 330.355848,128.918127 Z M494.64782,135.595489 C436.835997,157.787369 406.473051,229.639337 413.85317,313.144548 C417.078999,342.460483 424.361496,372.946926 436.030209,403.344963 C437.069404,406.052158 438.134921,408.736596 439.225991,411.397772 C445.892198,426.776839 453.621393,441.407848 462.285352,455.106234 C533.698893,477.250106 597.678843,483.334805 654.267793,473.507932 C686.929552,467.836101 712.811799,459.226123 732.004978,447.837106 C741.75305,400.017887 736.280906,344.053263 715.584086,290.136203 C671.135272,174.343085 571.542165,106.078516 494.64782,135.595489 Z M503.544178,106.005454 C492.320393,110.313861 482.024551,116.300067 472.714803,123.7428 C477.441216,121.165377 482.36545,118.88735 487.480461,116.923881 C576.485604,82.7580076 686.294068,158.024536 734.255694,282.968844 C753.168936,332.239523 760.156503,383.31157 755.08509,429.473695 C756.66486,427.738087 758.143696,425.9608 759.521052,424.142388 L760.142,423.309623 L760.200725,423.227726 C764.082793,417.935339 770.605628,415.724774 776.62435,417.079469 C778.072418,374.763176 770.479656,328.176738 752.6758,281.796108 C702.296932,150.554668 590.055868,72.7967269 503.544178,106.005454 Z" id="Shape" fill="#000000" fill-rule="nonzero"></path>
    </g>
</svg>