<?xml version="1.0" encoding="UTF-8"?>
<svg width="960px" height="960px" viewBox="0 0 960 960" version="1.1" xmlns="http://www.w3.org/2000/svg" xmlns:xlink="http://www.w3.org/1999/xlink">
    <title>Frame</title>
    <defs>
        <path d="M0,0 L960,0 L960,960 L0,960 L0,0 Z" id="path-1"></path>
    </defs>
    <g id="Frame" stroke="none" fill="none" xlink:href="#path-1">
        <path d="M516.123054,89.1240256 C522.12552,92.5607032 522.12552,83.6416377 555.091062,83.6416377 C581.285732,83.6416377 581.055221,92.0221804 589.202746,87.4309337 C610.182466,75.6085632 658.544944,17.6461175 684.590012,25.7795699 C710.635079,33.9130223 701.767302,77.4715122 696.780798,108.075656 C691.794295,138.679799 691.661606,152.596081 692.917068,160.995539 C694.172529,169.394996 711.595836,178.325916 711.595836,217.019284 C711.595836,255.712652 699.428668,277.461247 697.377594,293.520828 C695.326519,309.580409 696.780798,360.470411 697.560565,385.132813 C698.340331,409.795214 710.679554,479.775028 705.469284,519.273438 C698.845164,569.490059 677.667816,609.215354 669.075956,623.143287 C668.035528,624.829885 674.001149,646.354934 666.206748,674.798204 C658.412348,703.241475 626.363044,775.588855 618.591053,796.624253 C616.044663,803.516224 612.004994,816.352364 614.370179,816.723416 C631.933951,819.478837 672.316505,828.262934 697.377594,794.934525 C706.912104,782.254705 707.115291,768.549014 705.469284,759.489106 C703.823276,750.429198 694.658096,735.265283 687.546317,727.535125 C680.434538,719.804968 674.715435,704.611716 682.884949,689.501922 C691.054464,674.392128 705.301727,672.256636 716.782143,672.256636 C728.262559,672.256636 754.257714,681.057068 768.938462,710.758717 C783.61921,740.460365 810.257365,840.021067 701.997203,889.223748 C682.001315,898.311591 667.84048,905.910932 569.260435,918.608008 C552.76135,920.733084 561.858978,934.838516 516.123054,934.838516 C470.38713,934.838516 466.554515,917.218154 444.534881,915.041815 C361.091741,906.794606 295.732269,903.757485 239.907422,879.496463 C213.302825,867.934322 225.318501,859.627154 215.186893,836.432108 C206.578125,816.723416 168.523438,794.934525 168.523438,710.758717 C168.523438,626.582908 219.281888,602.115021 218.536043,596.135754 C209.076382,520.299764 248.992185,444.667042 274.982017,406.938933 C305.102806,363.214126 343.429092,335.02631 389.960875,322.375484 C400.615231,293.098202 406.669211,275.224108 408.122817,268.753201 C410.303226,259.046841 398.638609,259.046841 398.638609,217.019284 C398.638609,189.000913 405.148399,166.494364 418.167981,149.499636 C399.12477,85.2389311 399.12477,45.1246528 418.167981,29.1568014 C446.732798,5.20502433 510.120588,85.687348 516.123054,89.1240256 Z" id="Path" stroke="#000000" stroke-width="40"></path>
        <path d="M416.343051,265.494472 C451.361115,328.811765 496.266144,360.470411 551.058139,360.470411 C605.850133,360.470411 656.797939,328.811765 703.901555,265.494472" id="Path" stroke="#000000" stroke-width="20"></path>
        <path d="M426.875,841.652396 C444.747206,782.673274 431.478977,726.406329 387.070313,672.851562 C373.368685,656.328042 363.779425,643.055243 357.27607,632.394965 C332.162163,591.228331 353.067173,589.021227 360.879469,589.021227 C366.07525,589.021227 391.319899,655.22358 417.434382,720.158871 C440.753158,778.142463 465.320509,834.126008 468.103691,856.794927 C468.760201,862.142186 465.940259,864.515327 465.107399,868.319241 C464.617161,870.558304 458.507274,893.819881 473.273728,903.878094 C480.432528,908.75433 498.211548,913.473299 515.704171,912.246684 C525.037882,911.592187 549.056009,912.252182 553.376574,890.285712 C556.256951,875.641398 549.340329,863.369298 532.626711,853.469411 L527.717384,554.492188" id="Path" stroke="#000000" stroke-width="20"></path>
        <path d="M353.201451,590.023924 C343.43054,593.443743 352.28938,598.576317 351.225491,607.980493 C347.970838,636.749796 369.489769,655.471421 387.070313,672.851562 C389.047369,674.806082 418.17388,728.195261 426.480469,770.861428 C432.077864,799.612026 438.527871,841.669908 439.57549,841.652396 C440.594402,841.635527 459.502775,861.952882 464.303042,858.096621 C467.414469,855.597078 458.205648,831.896743 456.017324,823.342651 C443.079977,772.770951 394.598931,669.533512 393.944976,668.042627 C385.011041,647.675066 375.322691,627.620545 364.886164,607.980493 C362.254393,603.027874 358.196578,598.976713 354.851784,594.474823 L353.201451,590.023924 Z" id="Path" fill="#000000" fill-rule="evenodd"></path>
        <path d="M200.290165,798.711605 C206.416436,841.41978 220.501702,866.84831 239.907422,879.496463 C255.697163,889.787813 401.665562,912.443365 424.835174,912.443365 C452.808123,912.443365 465.911649,907.811874 464.145754,898.548892 C460.602737,855.920973 442.301446,838.063869 409.241882,844.977583 C345.428116,858.322892 308.671264,777.389748 306.253482,770.861428" id="Path" stroke="#000000" stroke-width="20"></path>
        <path d="M607.150149,798.711605 L592.448484,845.596642 C613.642411,862.871155 617.559577,883.505058 604.199981,907.498353" id="Path" stroke="#000000" stroke-width="20"></path>
        <path d="M634.528529,293.919124 C670.279522,278.179826 721.046872,275.704942 786.830578,286.494472" id="Path" stroke="#000000" stroke-width="10" transform="translate(710.6796, 286.9156) rotate(15) translate(-710.6796, -286.9156)"></path>
        <path d="M634.560565,261.001755 C664.137482,245.262456 706.137482,242.787573 760.560565,253.577103" id="Path" stroke="#000000" stroke-width="10" transform="translate(697.5606, 253.9983) rotate(4) translate(-697.5606, -253.9983)"></path>
        <path d="M627.528529,330.919124 C663.279522,315.179826 714.046872,312.704942 779.830578,323.494472" id="Path" stroke="#000000" stroke-width="10" transform="translate(703.6796, 323.9156) rotate(30) translate(-703.6796, -323.9156)"></path>
        <path d="M325.528529,296.919124 C361.279522,281.179826 412.046872,278.704942 477.830578,289.494472" id="Path" stroke="#000000" stroke-width="10" transform="translate(401.6796, 289.9156) scale(-1, 1) rotate(15) translate(-401.6796, -289.9156)"></path>
        <path d="M351.560565,261.001755 C381.137482,245.262456 423.137482,242.787573 477.560565,253.577103" id="Path" stroke="#000000" stroke-width="10" transform="translate(414.5606, 253.9983) scale(-1, 1) rotate(4) translate(-414.5606, -253.9983)"></path>
        <path d="M332.528529,333.919124 C368.279522,318.179826 419.046872,315.704942 484.830578,326.494472" id="Path" stroke="#000000" stroke-width="10" transform="translate(408.6796, 326.9156) scale(-1, 1) rotate(30) translate(-408.6796, -326.9156)"></path>
        <path d="M554.399995,250 C558.548144,250 563.09966,256.011073 566.494306,261.56776 C568.630142,265.063903 570.31986,268.814435 571.081193,272.140321 C571.49688,273.956251 571.889485,275.708437 571.187631,276.857299 C569.078043,280.310479 561.027005,281.056078 554.057138,281.056078 C547.378112,281.056078 539.77964,280.404917 537.612359,276.857299 C536.862442,275.629763 537.14366,273.858027 537.534248,272.014073 C538.224763,268.75417 539.848641,265.123469 541.920463,261.732109 C545.38522,256.060657 550.160278,250 554.399995,250 Z" id="Triangle" stroke="#000000" stroke-width="10" fill="#000000" fill-rule="evenodd" transform="translate(554.3418, 265.528) rotate(180) translate(-554.3418, -265.528)"></path>
        <path d="M554.327402,279.319608 C556.711181,308.86834 541.862441,314.759688 509.781183,296.99365" id="Path" stroke="#000000" stroke-width="10"></path>
        <path d="M599.533871,279.319608 C601.91765,308.86834 587.068911,314.759688 554.987652,296.99365" id="Path" stroke="#000000" stroke-width="10" transform="translate(577.3844, 293.1598) scale(-1, 1) translate(-577.3844, -293.1598)"></path>
        <path d="M500.617525,198.270768 C509.293993,198.270768 517.155783,202.046236 524.331672,209.270928 C517.154689,216.495825 509.293389,220.270768 500.617525,220.270768 C491.941058,220.270768 484.079267,216.495299 476.903379,209.270608 C484.080362,202.045711 491.941662,198.270768 500.617525,198.270768 Z" id="Oval" stroke="#000000" stroke-width="10" fill="#000000" fill-rule="evenodd" transform="translate(500.6175, 209.2708) rotate(4) translate(-500.6175, -209.2708)"></path>
        <path d="M607.617525,198.270768 C616.293993,198.270768 624.155783,202.046236 631.331672,209.270928 C624.154689,216.495825 616.293389,220.270768 607.617525,220.270768 C598.941058,220.270768 591.079267,216.495299 583.903379,209.270608 C591.080362,202.045711 598.941662,198.270768 607.617525,198.270768 Z" id="Oval" stroke="#000000" stroke-width="10" fill="#000000" fill-rule="evenodd" transform="translate(607.6175, 209.2708) scale(-1, 1) rotate(4) translate(-607.6175, -209.2708)"></path>
    </g>
</svg>