<?xml version="1.0" encoding="UTF-8"?>
<svg width="64px" height="64px" viewBox="0 0 64 64" version="1.1" xmlns="http://www.w3.org/2000/svg" xmlns:xlink="http://www.w3.org/1999/xlink">
    <title>alarm_sleep_mode_active</title>
    <g id="alarm_sleep_mode_active" stroke="none" fill="none" fill-rule="nonzero">
        <path d="M26.4931745,12.4031057 C25.511402,14.7912562 25,17.3581213 25,20 C25,31.045695 33.954305,40 45,40 C47.6415749,40 50.2085435,39.4887119 52.5964272,38.5074484 C54.2394739,37.8322641 55.8816535,39.474368 55.2065448,41.1174458 C51.5376728,50.0467376 42.8202406,56 33,56 C19.745166,56 9,45.254834 9,32 C9,22.1797202 14.9532775,13.4623708 23.8832007,9.79275851 C25.5264157,9.11750499 27.1686631,10.7599873 26.4931745,12.4031057 Z M44.3359375,21.0185547 L44.3359375,22.5292969 L40.3349609,27.8417969 L44.4272461,27.8417969 L44.4272461,30 L36.7988281,30 L36.7988281,28.4394531 L40.7832031,23.1767578 L36.9731445,23.1767578 L36.9731445,21.0185547 L44.3359375,21.0185547 Z M55.5351562,8.9140625 L55.5351562,10.4082031 L49.815918,18.7587891 L55.5932617,18.7587891 L55.5932617,21 L46.1801758,21 L46.1801758,19.4643555 L51.940918,11.1635742 L46.1469727,11.1635742 L46.1469727,8.9140625 L55.5351562,8.9140625 Z" id="Combined-Shape" fill="#000000"></path>
    </g>
</svg>