<?xml version="1.0" encoding="UTF-8"?>
<svg width="64px" height="64px" viewBox="0 0 64 64" version="1.1" xmlns="http://www.w3.org/2000/svg" xmlns:xlink="http://www.w3.org/1999/xlink">
    <title>alarm_cat_detected</title>
    <g id="alarm_cat_detected" stroke="none" fill="none" fill-rule="nonzero">
        <path d="M43.0976626,6 C43.3836285,6 43.5989453,6.09191584 43.8602384,6.32569214 C44.4278388,6.83340716 45.3989978,9.17856816 46.0002765,11.4671846 L46.0679694,11.730897 C46.2075557,12.2879014 46.2986456,12.4983727 46.4222795,12.5295832 L46.4568657,12.5337763 C46.5601221,12.5337763 47.0505357,12.6641196 47.5468187,12.823588 C49.7907437,13.544186 51.6053394,14.8398671 52.4660632,16.3362126 L52.5645272,16.5206903 C52.7341621,16.854605 52.993467,17.4261028 53.2201953,17.9677626 L53.2943971,18.1468439 C53.833402,19.4621979 54.0911733,19.8472029 54.854533,20.3729363 L55.00378,20.4734219 C55.987868,21.1230343 56.1985111,21.782835 55.8298313,23.061794 C55.1502204,25.4189178 53.2812651,26.9999112 50.3589496,27.6942333 L50.0418199,27.765227 C49.1834873,27.9458472 48.7208985,28.2389812 48.7208985,28.6021041 C48.7208985,28.6857222 48.8881118,29.1480208 49.1203115,29.7173564 L49.3227204,30.2015504 C50.1068171,32.0333333 50.7360291,33.9047619 50.9448244,35.0264673 C51.2758135,36.8039271 51.1472597,38.2343307 50.3550169,41.0342756 L49.9416301,42.4488257 C49.3541233,44.4789528 49.231004,45.2676932 49.2156758,47.1133165 L49.2140294,47.7497231 C49.2195151,50.813149 49.3295425,51.2053707 50.4375367,51.3844594 L50.5410375,51.4002215 C52.0153218,51.6125138 52.9136526,52.5364341 53.0414732,53.9718715 C53.1149483,54.7973422 52.8684372,55.4036545 52.3174827,55.7527132 L52.1827849,55.8321498 C51.9180013,55.9710502 51.6231434,55.9953499 50.2587904,55.9992853 L48.908717,55.9992853 C47.4327506,55.9940267 47.1995264,55.9624408 46.8652344,55.7876154 L46.8114156,55.758804 C45.7480918,55.178959 44.9337791,53.7211517 43.8529561,50.4629014 L43.7046637,50.0066069 C43.4736144,49.2779139 43.3151642,48.677406 43.1104455,47.7430184 L42.9104967,46.7994463 C42.2029185,43.3769657 41.1455728,41.2230343 39.2998915,39.4440753 C38.2531974,38.4352159 37.4841001,37.9563677 36.5215329,37.7143965 L36.247904,37.6475298 C35.8156179,37.5473406 35.7349113,37.5705 35.5117938,37.7194906 C35.3036506,37.858361 35.2388708,37.9849391 35.2638697,38.203876 C35.2918033,38.4495017 35.4528833,38.5856035 36.2057857,38.9997785 C38.9482762,40.5084164 40.8159131,43.655371 40.9716672,47.0299003 C41.0469901,48.6596899 40.7179825,49.9112957 39.9061697,51.0846069 L39.7058522,51.3739756 L40.3399553,51.4326689 C42.0675983,51.5922481 43.2863501,52.8538206 43.2863501,54.482392 L43.2828202,54.7673111 C43.2702097,55.1338186 43.2155869,55.2531188 42.9962004,55.4858379 L42.5472515,55.944629 L34.4668234,55.9830682 L31.989172,55.9811192 C28.7588388,55.9635859 27.4639051,55.8735728 26.3825197,55.616085 L26.0210747,55.5220892 L25.8418264,55.4700066 L25.3829912,55.3241417 C21.7172796,54.1049834 19.064133,51.0150609 18.2138436,46.9745293 C17.9078785,45.5209302 17.9353773,42.0674419 18.2634067,40.7375415 L18.3765507,40.2978643 C18.8975888,38.3604593 19.6050173,36.9259998 21.5469389,33.8691151 L22.1380821,32.9456572 L22.414426,32.5091567 C23.099569,31.4180817 23.7246931,30.3570506 23.9040332,29.9723145 C24.5967207,28.4860465 24.5075941,27.0374308 23.6508919,25.8576966 C23.0804817,25.0722038 22.32171,24.5341085 21.5707641,24.3825028 L21.1560025,24.2963765 C20.2236265,24.0947733 20.0305044,23.9761318 19.5707416,23.493134 C18.7946881,22.6779623 18.7312126,21.7687708 19.3966187,20.9966777 C19.9736591,20.327021 20.4810285,20.1269103 21.6025019,20.1264673 C23.2615609,20.1258029 24.7761695,20.8095238 26.1232854,22.1671096 C28.7316512,24.7959025 29.2132609,28.6241417 27.4140993,32.4281285 L27.2940725,32.6645617 C27.0044668,33.2086952 26.4341729,34.1527613 25.8824197,34.9987083 L25.3151461,35.8634621 C23.4622426,38.7175899 22.6953971,40.3062397 22.3726861,41.903433 C22.1556302,42.9781838 22.1508478,45.1096346 22.36323,46.1439646 C22.5807206,47.2026578 23.2836251,48.6142857 23.9304451,49.2906977 C24.4018378,49.7839424 25.4504883,50.5658915 25.5307022,50.4841639 C25.5435006,50.471124 25.5130739,50.321041 25.4590018,50.1195044 L25.3977731,49.9039867 C24.4266193,46.6550388 24.9898559,41.86268 26.7731487,38.2009967 C28.3690863,34.9240433 30.5486924,32.6166962 33.8759591,30.6971019 L34.7450788,30.2075819 C36.0091504,29.4843967 36.4851729,29.0874104 36.9189071,28.4457364 C37.4197551,27.7048726 37.6344197,26.9883721 37.6344197,26.0578073 C37.6344197,25.5135797 37.5392727,25.0667813 37.1730855,23.9537527 L37.0961821,23.7220377 C36.4393625,21.7585825 36.2815433,20.7031008 36.4365366,19.3094131 C36.5709181,18.1006141 36.9092974,16.9553316 37.5104703,15.6867769 L37.6987648,15.3023256 C37.9815108,14.7427326 38.3533816,13.890625 38.5853759,13.2783052 L38.6755705,13.0321152 C39.5424897,10.5664452 41.0679674,7.7110742 42.0921624,6.63676633 L42.3079659,6.41544803 C42.6619404,6.06430308 42.8080513,6 43.0976626,6 Z M23,6 C23.8284271,6 24.5,6.67157288 24.5,7.5 C24.5,16.8888407 16.8888407,24.5 7.5,24.5 C6.67157288,24.5 6,23.8284271 6,23 C6,22.1715729 6.67157288,21.5 7.5,21.5 C15.2319865,21.5 21.5,15.2319865 21.5,7.5 C21.5,6.67157288 22.1715729,6 23,6 Z M49.2332817,18.1555153 C48.9233441,17.9709137 47.7293276,17.9434523 47.3465668,18.1120348 C47.2001525,18.1766199 47.0542866,18.3080786 47.0224813,18.4041935 C46.8376812,18.9624482 47.8326402,20.5352489 48.5248999,20.7793502 L48.8085108,20.8736801 C49.8256957,21.1877209 50.0525304,20.9453035 49.990578,19.817057 C49.9430893,18.9526587 49.7089361,18.4389017 49.2332817,18.1555153 Z M16,6 C16.8284271,6 17.5,6.67157288 17.5,7.5 C17.5,13.0228475 13.0228475,17.5 7.5,17.5 C6.67157288,17.5 6,16.8284271 6,16 C6,15.1715729 6.67157288,14.5 7.5,14.5 C11.3659932,14.5 14.5,11.3659932 14.5,7.5 C14.5,6.67157288 15.1715729,6 16,6 Z M11,6 C11,8.76142375 8.76142375,11 6,11 L6,8 C6,6.8954305 6.8954305,6 8,6 L11,6 Z" id="Shape" fill="#000000"></path>
    </g>
</svg>