<?xml version="1.0" encoding="UTF-8"?>
<svg width="64px" height="64px" viewBox="0 0 64 64" version="1.1" xmlns="http://www.w3.org/2000/svg" xmlns:xlink="http://www.w3.org/1999/xlink">
    <title>alarm_waste_drawer_full</title>
    <g id="alarm_waste_drawer_full" stroke="none" fill="none" fill-rule="nonzero">
        <path d="M46.3069857,33.0352841 L57.7147391,52.7889459 C57.9016999,53.1126873 58,53.4787144 58,53.8511348 C58,55.0379203 57.0229073,56 55.8176024,56 L33.1827753,56 C32.8045434,56 32.4328046,55.9032103 32.1040113,55.7191221 C31.0562517,55.1324914 30.6898538,53.8206068 31.2856386,52.7889459 L42.693392,33.0352841 C42.8783151,32.7150713 43.1475849,32.4499388 43.4727946,32.267857 C44.4706609,31.7091611 45.7395715,32.0527499 46.3069857,33.0352841 Z M32,8 C45.254834,8 56,18.745166 56,32 C56,35.5804022 55.2159781,38.9776864 53.8102508,42.0295359 L51.2211795,37.5455542 C51.728302,35.784677 52,33.9240677 52,32 C52,20.954305 43.045695,12 32,12 C20.954305,12 12,20.954305 12,32 C12,42.2064184 19.6452647,50.6271896 29.5214035,51.8479229 C28.7766893,53.1840941 28.85515,54.7532079 29.5914328,55.9787187 C20.7735659,55.8174329 15.1538279,54.7424346 12.7322764,52.7536688 C12.2681959,52.3743416 11.9996792,51.8064131 12.0000003,51.2070313 L12,50 C12,47.9736251 11.6150442,45.7547724 10.8451326,43.3434417 C9.02937311,39.9646819 8,36.1025524 8,32 C8,18.745166 18.745166,8 32,8 Z M44.5011201,50 C43.6720744,50 43,50.6715729 43,51.5 C43,52.3284271 43.6720744,53 44.5011201,53 C45.3301658,53 46.0022402,52.3284271 46.0022402,51.5 C46.0022402,50.6715729 45.3301658,50 44.5011201,50 Z M32,33 C34.8165705,33 37.4820468,33.3414252 39.8559516,33.9501349 L30.6174879,49.9476973 C23.7101717,49.4230567 17.8922722,44.9999561 15.3589758,38.8735817 C18.0585921,35.4257052 24.4925609,33 32,33 Z M45.4908345,39 L43.4824171,39.0006547 C43.2016014,39.0144046 42.9859367,39.2373335 43.0007165,39.4985805 L43.4562856,47.5512121 C43.4705188,47.8027975 43.6939427,48 43.9647474,48 L45.0352653,48 C45.30607,48 45.5294939,47.8027975 45.5437271,47.5512121 L45.999824,39.4861367 L46,39.4736842 C46,39.2120756 45.7720388,39 45.4908345,39 Z" id="Combined-Shape" fill="#000000"></path>
    </g>
</svg>