<?xml version="1.0" encoding="UTF-8"?>
<svg width="64px" height="64px" viewBox="0 0 64 64" version="1.1" xmlns="http://www.w3.org/2000/svg" xmlns:xlink="http://www.w3.org/1999/xlink">
    <title>alarm_sleep_mode_scheduled</title>
    <g id="alarm_sleep_mode_scheduled" stroke="none" fill="none" fill-rule="evenodd">
        <path d="M17,10 C17.5522847,10 18,10.4477153 18,11 L18,14 C18,16.209139 19.790861,18 22,18 C24.209139,18 26,16.209139 26,14 L26,11 C26,10.4477153 26.4477153,10 27,10 L37,10 C37.5522847,10 38,10.4477153 38,11 L38,14 C38,16.209139 39.790861,18 42,18 C44.209139,18 46,16.209139 46,14 L46,11 C46,10.4871642 46.3860402,10.0644928 46.8833789,10.0067277 L47,10 L48,10 C51.3137085,10 54,12.6862915 54,16 L54,48 C54,51.3137085 51.3137085,54 48,54 L16,54 C12.6862915,54 10,51.3137085 10,48 L10,16 C10,12.6862915 12.6862915,10 16,10 L17,10 Z M48,22 L16,22 C14.8954305,22 14,22.8954305 14,24 L14,48 C14,49.1045695 14.8954305,50 16,50 L48,50 C49.1045695,50 50,49.1045695 50,48 L50,24 C50,22.8954305 49.1045695,22 48,22 Z M30.3670415,26.3800617 C29.9064207,27.5015715 29.6664905,28.7063807 29.6664905,29.9462546 C29.6664905,35.1312828 33.8698895,39.3345878 39.0550563,39.3345878 C40.2953642,39.3345878 41.500534,39.0945053 42.6215988,38.6337445 C43.4431217,38.2960963 44.2642674,39.1171438 43.9267174,39.9387071 C42.1859218,44.1756317 38.0487764,47.0009513 33.3885658,47.0009513 C27.0988396,47.0009513 22,41.9022259 22,35.6126182 C22,30.9529739 24.8247201,26.816623 29.0618888,25.0752106 C29.8833537,24.7376009 30.7044613,25.5585188 30.3670415,26.3800617 Z M22,6 C23.1045695,6 24,6.8954305 24,8 L24,14 C24,15.1045695 23.1045695,16 22,16 C20.8954305,16 20,15.1045695 20,14 L20,8 C20,6.8954305 20.8954305,6 22,6 Z M42,6 C43.1045695,6 44,6.8954305 44,8 L44,14 C44,15.1045695 43.1045695,16 42,16 C40.8954305,16 40,15.1045695 40,14 L40,8 C40,6.8954305 40.8954305,6 42,6 Z" id="Shape" fill="#000000"></path>
    </g>
</svg>