<?xml version="1.0" encoding="UTF-8"?>
<svg width="64px" height="64px" viewBox="0 0 64 64" version="1.1" xmlns="http://www.w3.org/2000/svg" xmlns:xlink="http://www.w3.org/1999/xlink">
    <title>health</title>
    <g id="health" stroke="none" fill="none" transform="translate(0, -0)" fill-rule="nonzero">
        <path d="M18.0900367,40.0009939 C19.095423,41.3464427 20.2104385,42.6369918 21.4237375,43.8670333 C23.5971102,46.0703965 25.9784702,47.9476104 28.2159779,49.3013595 C29.9978918,50.3794628 31.5292874,51 32,51 C32.4707134,51 34.0021064,50.3794622 35.7840046,49.301361 C38.0214997,47.94761 40.4028272,46.0703968 42.5761489,43.8670356 C43.7893775,42.6370378 44.9043246,41.346537 45.9096792,40.0005915 L50.7677971,40.0006676 C49.2615683,42.3747449 47.4648765,44.606819 45.423922,46.6759835 C40.7179701,51.4469808 34.8454991,55 32,55 C29.1545217,55 23.2820468,51.4470032 18.5759961,46.6760133 C16.5344381,44.6062837 14.7372655,42.3735546 13.2308169,40.0004414 L18.0900367,40.0009939 Z M35.2111456,21.1055728 C35.9481942,19.6314757 38.0518058,19.6314757 38.7888544,21.1055728 L44.236,32 L56,32 C57.1045695,32 58,32.8954305 58,34 C58,35.1045695 57.1045695,36 56,36 L43,36 L42.8387695,35.9935139 C42.1453284,35.9375832 41.5257308,35.5235975 41.2111456,34.8944272 L37,26.471 L28.7888544,42.8944272 L28.7078453,43.0416616 C27.9083541,44.3667715 25.9227787,44.3176933 25.2111456,42.8944272 L21.765,36 L8,36 C6.8954305,36 6,35.1045695 6,34 C6,32.8954305 6.8954305,32 8,32 L23,32 L23.1612305,32.0064861 C23.8546716,32.0624168 24.4742692,32.4764025 24.7888544,33.1055728 L27.001,37.528 Z M42.5416667,9 C49.6892647,9 55.5388574,14.76726 55.9740593,22.0605104 L55.98,22.183 L55.9894253,22.2490012 C55.9921712,22.2744508 55.9942534,22.2995178 55.9958676,22.3247067 L56,22.4772322 L55.9968013,22.6908097 L56,22.9318182 C56,23.2907688 55.9868501,23.6482659 55.9638344,23.9514818 C55.8988046,25.3249793 55.7454313,26.6755952 55.5088065,28.0010253 L51.4304589,28.0007917 C51.7194069,26.6010893 51.9022306,25.1697204 51.9714727,23.7100199 C51.9904542,23.4522468 52.0001987,23.1927329 52.0001987,22.9600085 L51.9971287,22.6963133 L51.998,22.606 L51.992413,22.52969 C51.7944329,17.2935431 47.7508973,13.1477175 42.8073441,13.0038616 L42.5416667,13 C38.7371993,13 35.3360008,15.3844464 33.8517652,19.0081756 C33.1736632,20.6637471 30.829288,20.6642151 30.1505251,19.0089145 C28.6642752,15.3843933 25.2626895,13 21.4583333,13 C16.3953711,13 12.2076403,17.19995 12,22.4545455 L12.0008974,22.6540219 L12.0016715,22.7428755 C12.0005577,22.8057733 12,22.8687558 12,22.9318182 C12,23.1912641 12.0094377,23.4523621 12.0309037,23.7623331 C12.0991483,25.2024175 12.2795775,26.6164207 12.5648604,28.0007188 L8.48715406,28.0007678 C8.25368152,26.689778 8.10235717,25.3549586 8.03817462,23.9987468 C8.01285412,23.6423675 8,23.2867514 8,22.9318182 L8.00058279,22.8111532 C8.0009739,22.7771403 8.00156447,22.7524304 8.00236225,22.7463063 C8.00166531,22.7104282 8.00114797,22.6746333 8.0008764,22.6323539 L8.0008652,22.479494 L8.00153669,22.3761592 C8.29348429,14.9329364 14.2091594,9 21.4583333,9 C25.6085827,9 29.401482,10.9604872 31.9005235,14.1390408 L32,14.269 L32.0998956,14.1396021 C34.5322481,11.0444686 38.1923224,9.10404433 42.2147472,9.00406018 L42.5416667,9 Z" id="Combined-Shape" fill="#000000"></path>
    </g>
</svg>