<?xml version="1.0" encoding="UTF-8"?>
<svg width="64px" height="64px" viewBox="0 0 64 64" version="1.1" xmlns="http://www.w3.org/2000/svg" xmlns:xlink="http://www.w3.org/1999/xlink">
    <title>alarm_hopper_empty</title>
    <g id="alarm_hopper_empty" stroke="none" fill="none" fill-rule="nonzero">
        <path d="M46.3069857,33.0352841 L57.7147391,52.7889459 C57.9016999,53.1126873 58,53.4787144 58,53.8511348 C58,55.0379203 57.0229073,56 55.8176024,56 L33.1827753,56 C32.8045434,56 32.4328046,55.9032103 32.1040113,55.7191221 C31.0562517,55.1324914 30.6898538,53.8206068 31.2856386,52.7889459 L42.693392,33.0352841 C42.8783151,32.7150713 43.1475849,32.4499388 43.4727946,32.267857 C44.4706609,31.7091611 45.7395715,32.0527499 46.3069857,33.0352841 Z M44.5011201,50 C43.6720744,50 43,50.6715729 43,51.5 C43,52.3284271 43.6720744,53 44.5011201,53 C45.3301658,53 46.0022402,52.3284271 46.0022402,51.5 C46.0022402,50.6715729 45.3301658,50 44.5011201,50 Z M50,8 C52.2444717,8 52.7863859,11.1285863 50.6726728,11.8834838 C42.1732211,14.9190023 38,21.4769212 38,32 L37.9995095,37.1617757 L29.5537007,51.7887505 C29.3650381,52.1154385 29.22615,52.4566687 29.1345987,52.8038981 L21.1862233,48.8291796 C16.7820309,46.6270834 14,42.1256629 14,37.2016261 L14,10 C14,8.8954305 14.8954305,8 16,8 L50,8 Z M45.4908345,39 L43.4824171,39.0006547 C43.2016014,39.0144046 42.9859367,39.2373335 43.0007165,39.4985805 L43.4562856,47.5512121 C43.4705188,47.8027975 43.6939427,48 43.9647474,48 L45.0352653,48 C45.30607,48 45.5294939,47.8027975 45.5437271,47.5512121 L46,39.4736842 C46,39.2120756 45.7720388,39 45.4908345,39 Z M42.225,12 L18,12 L17.999,18 L24,18.0001 C24.5522847,18.0001 25,18.4478153 25,19.0001 C25,19.5523847 24.5522847,20.0001 24,20.0001 L17.999,20 L17.999,26 L24,26.0002 C24.5522847,26.0002 25,26.4479153 25,27.0002 C25,27.5524847 24.5522847,28.0002 24,28.0002 L17.999,28 L17.999,34 L24,34.0003 C24.5522847,34.0003 25,34.4480153 25,35.0003 C25,35.5525847 24.5522847,36.0003 24,36.0003 L17.999,36 L18,37.2016261 C18,38.1680619 18.1547983,39.1109825 18.4460986,40.0007835 L33.999,40 L34,32 C34,23.2566168 36.6750022,16.6048946 41.9678961,12.2100926 L42.225,12 Z" id="Shape" fill="#000000"></path>
    </g>
</svg>