<?xml version="1.0" encoding="UTF-8"?>
<svg width="64px" height="64px" viewBox="0 0 64 64" version="1.1" xmlns="http://www.w3.org/2000/svg" xmlns:xlink="http://www.w3.org/1999/xlink">
    <title>clean_cycle_status</title>
    <g id="clean_cycle_status" stroke="none" fill="none" fill-rule="evenodd">
        <path d="M54.0244799,33.7282824 C55.1132138,33.9146211 55.8447503,34.9482752 55.6584123,36.0370134 C54.4621429,43.0265956 50.2616904,49.1693053 43.9998481,52.7845959 C32.8109153,59.2445548 18.582473,55.671018 11.7329821,44.8556146 L10.179599,45.7526987 C9.99476385,45.8594137 9.78545356,45.9163469 9.57235748,45.9178707 C8.89608453,45.9227064 8.34690264,45.3801268 8.34572539,44.7059852 L8.33250434,37.1361415 C8.33250434,36.9181869 8.39029442,36.7037889 8.50097022,36.5152189 C8.84329454,35.9319649 9.59360688,35.7332205 10.1768397,36.0713108 L16.7258812,39.8676809 C16.90966,39.9742144 17.0621074,40.1268656 17.1681547,40.3105457 C17.5047022,40.8934654 17.3020065,41.6405586 16.7154213,41.9792251 L15.200351,42.8531343 C20.9419668,51.7565945 32.7242358,54.6757986 41.9998566,49.3204953 C47.2205696,46.3063034 50.718057,41.1916044 51.715758,35.3622214 C51.9020959,34.2734831 52.9357459,33.5419438 54.0244799,33.7282824 Z M33,27 C33.5522847,27 34,27.4477153 34,28 L34,43 C34,43.5522847 34.4477153,44 35,44 C35.5522847,44 36,44.4477153 36,45 C36,45.5522847 35.5522847,46 35,46 L29,46 C28.4477153,46 28,45.5522847 28,45 C28,44.4477153 28.4477153,44 29,44 C29.5522847,44 30,43.5522847 30,43 L30,30 C30,29.4477153 29.5522847,29 29,29 C28.4477153,29 28,28.5522847 28,28 C28,27.4477153 28.4477153,27 29,27 L33,27 Z M52.2662798,19.1435235 L53.8201994,18.2472865 C54.0050345,18.1405715 54.2143448,18.0836383 54.4274409,18.0821145 C55.1037139,18.0772788 55.6528958,18.6198584 55.654073,19.294 L55.6672941,26.8638437 C55.6672941,27.0817983 55.609504,27.2961963 55.4988282,27.4847663 C55.1565038,28.0680203 54.4061915,28.2667647 53.8229587,27.9286743 L47.2739172,24.1323043 C47.0901384,24.0257708 46.937691,23.8731196 46.8316437,23.6894395 C46.4950962,23.1065198 46.6977919,22.3594266 47.2843771,22.0207601 L48.7989063,21.1460119 C43.0570914,12.2432073 31.2752712,9.32435475 21.9999418,14.6794899 C16.7792287,17.6936818 13.2817414,22.8083807 12.2840404,28.6377638 C12.0977024,29.7265021 11.0640525,30.4580414 9.97531854,30.2717028 C8.88658461,30.0853641 8.15504811,29.05171 8.34138605,27.9629718 C9.53765554,20.9733896 13.738108,14.8306799 19.9999503,11.2153893 C31.188591,4.75559906 45.4165826,8.32878067 52.2662798,19.1435235 Z M32,18 C33.6568542,18 35,19.3431458 35,21 C35,22.6568542 33.6568542,24 32,24 C30.3431458,24 29,22.6568542 29,21 C29,19.3431458 30.3431458,18 32,18 Z" id="Combined-Shape" fill="#000000"></path>
    </g>
</svg>