<?xml version="1.0" encoding="UTF-8"?>
<svg width="64px" height="64px" viewBox="0 0 64 64" version="1.1" xmlns="http://www.w3.org/2000/svg" xmlns:xlink="http://www.w3.org/1999/xlink">
    <title>food</title>
    <g id="food" stroke="none" fill="none" transform="translate(0, -0)" fill-rule="nonzero">
        <path d="M51,24 C51.8984156,24 52.6865804,24.5990727 52.9270358,25.4647123 L57.9270358,43.4647123 C58.1677842,44.3314064 57.8003151,45.2521917 57.0289915,45.7149859 C53.3305379,47.934058 45.3141887,48.9653811 32.6480499,48.9991421 L32,49 C18.9587924,49 10.7321478,47.9716694 6.97100849,45.7149859 C6.19968494,45.2521917 5.83221582,44.3314064 6.07296418,43.4647123 L11.0729642,25.4647123 C11.3134196,24.5990727 12.1015844,24 13,24 L51,24 Z M49.479,28 L14.52,28 L10.378,42.913 L10.4499926,42.9407121 C14.0177905,44.2446018 21.0689683,44.9717078 31.389161,44.9991912 L32,45 C42.6531756,45 49.9122526,44.2701683 53.5500074,42.9407121 L53.621,42.913 L49.479,28 Z M18.8027756,22 L44.9193752,22 C45.4716599,22 45.9193752,21.5522847 45.9193752,21 C45.9193752,20.7729285 45.8420944,20.552618 45.700244,20.375305 L43.9007319,18.1259149 C43.3314153,17.4142692 42.4694766,17 41.5581255,17 L39.2426407,17 C38.4469912,17 37.6839295,16.6839295 37.1213203,16.1213203 L35.8786797,14.8786797 C35.3160705,14.3160705 34.5530088,14 33.7573593,14 L29.2426407,14 C28.4469912,14 27.6839295,14.3160705 27.1213203,14.8786797 L23.8786797,18.1213203 C23.3160705,18.6839295 22.5530088,19 21.7573593,19 L20.6055513,19 C19.6024917,19 18.6657977,19.5013034 18.1094004,20.3358994 L18,20.5 C17.7044262,20.9433607 17.8242311,21.5423856 18.2675919,21.8379594 C18.4260798,21.943618 18.6122968,22 18.8027756,22 Z" id="Shape" fill="#000000"></path>
    </g>
</svg>