<?xml version="1.0" encoding="UTF-8"?>
<svg width="64px" height="64px" viewBox="0 0 64 64" version="1.1" xmlns="http://www.w3.org/2000/svg" xmlns:xlink="http://www.w3.org/1999/xlink">
    <title>age</title>
    <g id="age" stroke="none" fill="none" transform="translate(0, -0)" fill-rule="evenodd">
        <path d="M52.7815652,20 C59.4089822,31.479023 55.4759785,46.1571927 43.9969555,52.7846097 C32.807975,59.2445706 18.5794721,55.6710327 11.7299522,44.855626 L10.1765624,45.7527103 C9.9917265,45.8594254 9.78241531,45.9163586 9.56931833,45.9178824 C8.89304251,45.9227181 8.34385827,45.3801383 8.34268102,44.7059965 L8.32945991,37.1361505 C8.32945991,36.9181958 8.38725024,36.7037978 8.49792651,36.5152277 C8.84025229,35.9319735 9.59056782,35.7332291 10.1738031,36.0713195 L16.7228725,39.8676907 C16.906652,39.9742243 17.0591001,40.1268755 17.1651479,40.3105557 C17.5016968,40.8934755 17.2990003,41.6405689 16.7124125,41.9792355 L15.1973358,42.8531451 C20.938976,51.756608 32.7212952,54.6758131 41.9969555,49.3205081 C51.562808,43.7976606 54.8403111,31.5658525 49.3174636,22 C43.7946161,12.4341475 31.562808,9.15664443 21.9969555,14.6794919 C21.0403702,15.2317767 19.8171894,14.9040264 19.2649047,13.9474411 C18.7126199,12.9908559 19.0403702,11.7676751 19.9969555,11.2153903 C31.4759785,4.58797331 46.1541482,8.52097704 52.7815652,20 Z M33,27 C33.5522847,27 34,27.4477153 34,28 L34,45 C34,45.5522847 33.5522847,46 33,46 L31,46 C30.4477153,46 30,45.5522847 30,45 L30,28 C30,27.4477153 30.4477153,27 31,27 L33,27 Z M11.8118146,29.1649512 C12.2753847,30.1675361 11.8384269,31.3560896 10.835842,31.8196597 C9.83325709,32.2832298 8.64470359,31.846272 8.18113346,30.8436871 C7.71756333,29.8411022 8.15452116,28.6525487 9.15710607,28.1889785 C10.159691,27.7254084 11.3482445,28.1623662 11.8118146,29.1649512 Z M12.6314864,21.3732693 C13.6435651,21.8157289 14.1053326,22.9948651 13.662873,24.0069438 C13.2204134,25.0190225 12.0412772,25.48079 11.0291985,25.0383305 C10.0171198,24.5958709 9.55535224,23.4167346 9.99781184,22.4046559 C10.4402714,21.3925772 11.6194077,20.9308097 12.6314864,21.3732693 Z M32,17 C33,17 35,20.3431458 35,22 C35,23.6568542 33.6568542,25 32,25 C30.3431458,25 29,23.6568542 29,22 C29,20.3431458 31,17 32,17 Z M16.9912513,15.7788869 C17.8121044,16.5179905 17.8783754,17.7825852 17.1392718,18.6034382 C16.4001683,19.4242912 15.1355736,19.4905622 14.3147206,18.7514587 C13.4938675,18.0123551 13.4275965,16.7477604 14.1667001,15.9269074 C14.9058036,15.1060544 16.1703983,15.0397833 16.9912513,15.7788869 Z" id="Shape" fill="#000000"></path>
    </g>
</svg>