<?xml version="1.0" encoding="UTF-8"?>
<svg width="64px" height="64px" viewBox="0 0 64 64" version="1.1" xmlns="http://www.w3.org/2000/svg" xmlns:xlink="http://www.w3.org/1999/xlink">
    <title>breed</title>
    <g id="breed" stroke="none" fill="none" transform="translate(0, -0)" fill-rule="nonzero">
        <path d="M40.6194456,10.8948738 L40.698,11.002 L40.8123396,10.9838245 C44.0975108,10.5239359 47.2117791,12.6048235 48.0440781,15.8159176 L48.071,15.928 L48.1840824,15.9559219 C51.3951765,16.7882209 53.4760641,19.9024892 53.0161755,23.1876604 L52.998,23.301 L53.1051262,23.3805544 C55.7381351,25.3772357 56.4655993,29.0344454 54.7971132,31.8867472 L54.728,31.999 L54.7971132,32.1132528 C56.4655993,34.9655546 55.7381351,38.6227643 53.1051262,40.6194456 L52.998,40.698 L53.0161755,40.8123396 C53.4760641,44.0975108 51.3951765,47.2117791 48.1840824,48.0440781 L48.071,48.071 L48.0440781,48.1840824 C47.2117791,51.3951765 44.0975108,53.4760641 40.8123396,53.0161755 L40.698,52.998 L40.6194456,53.1051262 C38.6227643,55.7381351 34.9655546,56.4655993 32.1132528,54.7971132 L31.999,54.728 L31.8867472,54.7971132 C29.0344454,56.4655993 25.3772357,55.7381351 23.3805544,53.1051262 L23.301,52.998 L23.1876604,53.0161755 C19.9024892,53.4760641 16.7882209,51.3951765 15.9559219,48.1840824 L15.928,48.071 L15.8159176,48.0440781 C12.6048235,47.2117791 10.5239359,44.0975108 10.9838245,40.8123396 L11.002,40.698 L10.8948738,40.6194456 C8.2618649,38.6227643 7.53440067,34.9655546 9.2028868,32.1132528 L9.272,32 L9.2028868,31.8867472 C7.53440067,29.0344454 8.2618649,25.3772357 10.8948738,23.3805544 L11.002,23.301 L10.9838245,23.1876604 C10.5239359,19.9024892 12.6048235,16.7882209 15.8159176,15.9559219 L15.928,15.928 L15.9559219,15.8159176 C16.7882209,12.6048235 19.9024892,10.5239359 23.1876604,10.9838245 L23.301,11.002 L23.3805544,10.8948738 C25.3759878,8.26351053 29.0298745,7.53531075 31.8813982,9.1997612 L32,9.272 L32.1132528,9.2028868 C34.9655546,7.53440067 38.6227643,8.2618649 40.6194456,10.8948738 Z M26.6152251,13.2513512 L26.5094562,13.391801 C25.6996404,14.547151 24.3226003,15.1565832 22.9328981,14.9903903 L22.7244171,14.9596155 C21.4425186,14.7342199 20.2081902,15.5138912 19.8482689,16.7461547 L19.8063495,16.909406 C19.5003105,18.2867133 18.461311,19.3767256 17.1137943,19.7549995 L16.909406,19.8063495 C15.638831,20.0886724 14.7968276,21.2813517 14.9358705,22.5575507 L14.9596155,22.7244171 C15.2039451,24.1139992 14.6611644,25.5186471 13.5609804,26.3837989 L13.391801,26.5094562 C12.3279979,27.2551043 12.0057102,28.6752476 12.617843,29.800086 L12.7071256,29.9515516 C13.4606399,31.1355924 13.5002986,32.6314579 12.8261016,33.8483223 L12.7071256,34.0484484 C12.0096469,35.1444372 12.2553572,36.5798127 13.2513512,37.3847749 L13.391801,37.4905438 C14.547151,38.3003596 15.1565832,39.6773997 14.9903903,41.0671019 L14.9596155,41.2755829 C14.7342199,42.5574814 15.5138912,43.7918098 16.7461547,44.1517311 L16.909406,44.1936505 C18.2867133,44.4996895 19.3767256,45.538689 19.7549995,46.8862057 L19.8063495,47.090594 C20.0886724,48.361169 21.2813517,49.2031724 22.5575507,49.0641295 L22.7244171,49.0403845 C24.1139992,48.7960549 25.5186471,49.3388356 26.3837989,50.4390196 L26.5094562,50.608199 C27.2551043,51.6720021 28.6752476,51.9942898 29.800086,51.382157 L29.9515516,51.2928744 C31.1355924,50.5393601 32.6314579,50.4997014 33.8483223,51.1738984 L34.0484484,51.2928744 C35.1444372,51.9903531 36.5798127,51.7446428 37.3847749,50.7486488 L37.4905438,50.608199 C38.3003596,49.452849 39.6773997,48.8434168 41.0671019,49.0096097 L41.2755829,49.0403845 C42.5574814,49.2657801 43.7918098,48.4861088 44.1517311,47.2538453 L44.1936505,47.090594 C44.4996895,45.7132867 45.538689,44.6232744 46.8862057,44.2450005 L47.090594,44.1936505 C48.361169,43.9113276 49.2031724,42.7186483 49.0641295,41.4424493 L49.0403845,41.2755829 C48.7960549,39.8860008 49.3388356,38.4813529 50.4390196,37.6162011 L50.608199,37.4905438 C51.6720021,36.7448957 51.9942898,35.3247524 51.382157,34.199914 L51.2928744,34.0484484 C50.5393601,32.8644076 50.4997014,31.3685421 51.1738984,30.1516777 L51.2928744,29.9515516 C51.9903531,28.8555628 51.7446428,27.4201873 50.7486488,26.6152251 L50.608199,26.5094562 C49.452849,25.6996404 48.8434168,24.3226003 49.0096097,22.9328981 L49.0403845,22.7244171 C49.2657801,21.4425186 48.4861088,20.2081902 47.2538453,19.8482689 L47.090594,19.8063495 C45.7132867,19.5003105 44.6232744,18.461311 44.2450005,17.1137943 L44.1936505,16.909406 C43.9113276,15.638831 42.7186483,14.7968276 41.4424493,14.9358705 L41.2755829,14.9596155 C39.8860008,15.2039451 38.4813529,14.6611644 37.6162011,13.5609804 L37.4905438,13.391801 C36.7448957,12.3279979 35.3247524,12.0057102 34.199914,12.617843 L34.0484484,12.7071256 C32.8644076,13.4606399 31.3685421,13.5002986 30.1516777,12.8261016 L29.9515516,12.7071256 C28.8555628,12.0096469 27.4201873,12.2553572 26.6152251,13.2513512 Z M32,31 C35.2,31 40,35.312 40,39.624 C40,43.936 36.8,41.0613333 32,41.0613333 C27.2,41.0613333 24,43.936 24,39.624 C24,35.312 28.8,31 32,31 Z M24.7270123,29.6195632 C25.3537409,31.4899155 24.8647376,33.4003205 23.6347926,33.8865723 C22.4048477,34.3728242 20.8997164,33.2507891 20.2729877,31.3804368 C19.6462591,29.5100845 20.1352624,27.5996795 21.3652074,27.1134277 C22.5951523,26.6271758 24.1002836,27.7492109 24.7270123,29.6195632 Z M42.6347926,27.1134277 C43.8647376,27.5996795 44.3537409,29.5100845 43.7270123,31.3804368 C43.1002836,33.2507891 41.5951523,34.3728242 40.3652074,33.8865723 C39.1352624,33.4003205 38.6462591,31.4899155 39.2729877,29.6195632 C39.8997164,27.7492109 41.4048477,26.6271758 42.6347926,27.1134277 Z M28,21 C29.6568542,21 31,22.790861 31,25 C31,27.209139 29.6568542,29 28,29 C26.3431458,29 25,27.209139 25,25 C25,22.790861 26.3431458,21 28,21 Z M36,21 C37.6568542,21 39,22.790861 39,25 C39,27.209139 37.6568542,29 36,29 C34.3431458,29 33,27.209139 33,25 C33,22.790861 34.3431458,21 36,21 Z" id="Shape" fill="#000000"></path>
    </g>
</svg>