<?xml version="1.0" encoding="UTF-8"?>
<svg width="64px" height="64px" viewBox="0 0 64 64" version="1.1" xmlns="http://www.w3.org/2000/svg" xmlns:xlink="http://www.w3.org/1999/xlink">
    <title>environment-v2</title>
    <g id="environment-v2" stroke="none" fill="none" transform="translate(0, -0)" fill-rule="nonzero">
        <path d="M27.4142136,10.5857864 L34.4842287,17.6523948 L33.9356521,18.2935083 L33.3381185,18.9749181 C33.2344773,19.0917959 33.1288168,19.2103164 33.0211474,19.3304613 L32.9049237,19.4682674 L32.8274484,19.5659397 L32.7182996,19.712498 L32.6088165,19.8775789 C32.3907848,20.2242478 32.233435,20.5903233 32.133102,20.9641055 L25.9999905,14.829 L8.82799049,32 L11,32 C11.5128358,32 11.9355072,32.3860397 11.9932723,32.8833784 L12,33 L11.9999905,52 L35.6709905,52 L35.1407671,53.9481819 C34.9487152,54.6525892 34.9566799,55.3542019 35.1246031,56.0005679 L10,56 C8.8954305,56 8,55.1045695 8,54 L8,36 L4,36 C2.27059647,36 1.37911637,33.9705752 2.4801695,32.6992001 L2.58578644,32.5857864 L24.5857864,10.5857864 C25.366835,9.80473785 26.633165,9.80473785 27.4142136,10.5857864 Z M43.9155926,10.5978927 L44.4659402,11.8307681 L44.8147624,12.5891085 C45.6117225,14.299119 46.2897303,15.5926612 46.8436615,16.4631245 C47.5936575,17.6416897 48.8965802,19.2703431 50.7447132,21.3326153 C51.2250015,21.8685536 50.9989547,22.7211077 50.3162278,22.9486833 L48.692,23.489 L56.7739573,33.3667622 C57.0721736,33.7312488 57.0727407,34.248518 56.7909484,34.6120143 L56.7071068,34.7071068 L54.374,37.04 L61.7474093,45.3356362 C62.0721154,45.7009305 62.0820357,46.2414134 61.7871677,46.616876 L61.7071068,46.7071068 C60.1655042,48.2487094 57.9116324,49 54.9999977,49 C52.5039521,49 50.5341523,48.7179231 49.0757462,48.1294953 L48.975,48.086 L46.429,49.105 L47.9647844,54.736958 C48.1280167,55.335661 47.7134224,55.9262129 47.1143849,55.9936179 L46.9999977,56 L38.9999977,56 C38.340659,56 37.8617813,55.3730799 38.0352156,54.736958 L39.57,49.105 L37.024,48.086 L36.9232718,48.1298936 C35.6447775,48.6455238 33.9738768,48.9254424 31.8966565,48.9870275 L31.4453137,48.9968888 L30.9999977,49 C28.0883676,49 25.8344958,48.2487094 24.2928932,46.7071068 C23.9184969,46.3327105 23.9008258,45.7313717 24.2525907,45.3356362 L31.625,37.04 L29.2928932,34.7071068 C28.9598892,34.3741027 28.9078546,33.859457 29.1520792,33.4697253 L29.2260427,33.3667622 L37.307,23.489 L35.6837722,22.9486833 C35.0412057,22.7344945 34.8031725,21.9666916 35.1778115,21.4302877 L35.2552868,21.3326153 C37.1034198,19.2703431 38.4063425,17.6416897 39.1563385,16.4631245 L39.4013192,16.0641853 C40.11687,14.8605754 41.014291,13.0345327 42.0844074,10.5978927 C42.4345152,9.80070243 43.5654848,9.80070243 43.9155926,10.5978927 Z" id="Shape" fill="#000000"></path>
    </g>
</svg>