<?xml version="1.0" encoding="UTF-8"?>
<svg width="64px" height="64px" viewBox="0 0 64 64" version="1.1" xmlns="http://www.w3.org/2000/svg" xmlns:xlink="http://www.w3.org/1999/xlink">
    <title>birthday</title>
    <g id="birthday" stroke="none" fill="none" transform="translate(0, -0)" fill-rule="evenodd">
        <path d="M57,52 C57.5522847,52 58,52.4477153 58,53 C58,53.5971903 57.6178612,54.1273796 57.0513167,54.3162278 L55,55 C53.0129965,55.6623345 50.932208,56 48.8377223,56 L15.1622777,56 C13.067792,56 10.9870035,55.6623345 9,55 L6.9486833,54.3162278 C6.38213884,54.1273796 6,53.5971903 6,53 C6,52.4477153 6.44771525,52 7,52 L57,52 Z M17.1747582,36.0037542 C17.9061577,36.0366712 18.3131713,36.2909657 18.868871,36.9594918 L19.2309423,37.4150114 C20.0932642,38.5067848 20.7870174,39 22,39 C23.2359558,39 23.9386311,38.5530941 25.0347323,37.3887076 L25.2324346,37.1757246 C26.0808447,36.2501863 26.435975,36 27,36 C27.4501422,36 27.7495887,36.1675526 28.2807707,36.737495 L28.6556419,37.1580572 C29.7903785,38.4564554 30.5820976,39 32,39 C33.3518786,39 34.076846,38.5292526 35.0955582,37.3443266 L35.2682213,37.1401844 C36.030463,36.2254944 36.3436496,36 37,36 C37.6314491,36 38.0047285,36.2268249 38.691705,36.9876353 L38.9633202,37.2953421 C40.0171962,38.4974664 40.7366363,39 42,39 C43.2305331,39 43.9938917,38.5320091 45.1118628,37.3991567 L45.5036776,36.9935736 C46.2285145,36.2412225 46.588655,36 47,36 C49.6658455,36.8276644 51,38.4707973 51,40 L51,48 C51,49.1045695 50.1045695,50 49,50 L15,50 C13.8954305,50 13,49.1045695 13,48 L13,40 C13,38.4706062 14.3334883,36.8276802 17,36 L17.1747582,36.0037542 Z M33,16 C33.5522847,16 34,16.4477153 34,17 L34,21 C34,21.5522847 33.5522847,22 33,22 L31,22 C30.4477153,22 30,21.5522847 30,21 L30,17 C30,16.4477153 30.4477153,16 31,16 L33,16 Z M32,6 C33,6 35,9.34314575 35,11 C35,12.6568542 33.6568542,14 32,14 C30.3431458,14 29,12.6568542 29,11 C29,9.34314575 31,6 32,6 Z M17,29 C17,25.7195767 21.8425296,24.05333 31.5275888,24.0012598 L32,24 C42,24 47,25.6666667 47,29 L47,34 C45.9366626,34 45.2378627,34.4235429 44.2623539,35.4026697 L43.8697802,35.8077002 C42.9976852,36.7167176 42.5769931,37 42,37 C41.5218833,37 41.2122846,36.8060078 40.6026267,36.1293868 L40.3482954,35.8410487 C39.2124278,34.5444684 38.4174596,34 37,34 C35.6481214,34 34.923154,34.4707474 33.9044418,35.6556734 L33.7317787,35.8598156 C32.969537,36.7745056 32.6563504,37 32,37 C31.3694536,37 30.9991142,36.7746078 30.3135247,36.0133781 L30.0493183,35.7134047 C28.9915176,34.5037742 28.2716398,34 27,34 C25.756409,34 25.0505317,34.4486124 23.9555804,35.6115768 L23.7507114,35.8323643 C22.9081441,36.7515243 22.5556397,37 22,37 C21.5892298,37 21.3569962,36.8573604 20.9154129,36.3184913 L20.5672555,35.8787919 C19.5542893,34.6009486 18.6267764,34 17,34 L17,29 Z" id="Shape" fill="#000000"></path>
    </g>
</svg>