<?xml version="1.0" encoding="UTF-8"?>
<svg width="64px" height="64px" viewBox="0 0 64 64" version="1.1" xmlns="http://www.w3.org/2000/svg" xmlns:xlink="http://www.w3.org/1999/xlink">
    <title>gender</title>
    <g id="gender" stroke="none" fill="none" transform="translate(0, -0)" fill-rule="nonzero">
        <path d="M33.989535,32.4840806 L33.9973753,32.2426819 L34,32 L33.9930179,31.6043741 L33.9848331,31.4173441 L33.9606956,31.0635086 L33.924,30.7087327 L33.871,30.3147327 L33.8352435,30.0907136 L33.7605689,29.7044913 L33.702,29.4457327 L33.615,29.1057327 L33.5228753,28.7838344 L33.4128269,28.4431823 L33.3888706,28.3754564 C32.6879577,26.366275 31.4206565,24.6226748 29.7782598,23.3359486 C30.3305909,22.0956442 31.1567875,21.0032356 32.1794536,20.1352661 C34.3841038,21.8438253 36.0997451,24.1531383 37.080702,26.8176662 L37.2445416,27.28843 L37.3580587,27.6450781 L37.3827889,27.729399 C37.4681767,28.0161853 37.5450213,28.3067536 37.6131628,28.6006958 L37.7295558,29.1516547 L37.7999228,29.5442827 L37.8767217,30.069599 L37.9025867,30.2813342 L37.9397244,30.6474934 L37.9711476,31.0630825 L37.9810605,31.2397594 L37.9950248,31.6098527 L38,32 L37.995,32.3637327 L37.9900166,32.5524152 C37.9784038,32.8731955 37.9567177,33.1914107 37.9252653,33.5067513 L37.8580643,34.071955 L37.7794247,34.577313 C37.727922,34.8746987 37.667723,35.1688264 37.5990569,35.4596833 L37.528321,35.7465551 L37.4650142,35.9845804 C36.7205733,38.6931827 35.2357189,41.0952169 33.2417091,42.959425 L32.9176669,43.2536832 C32.6773169,43.4656627 32.4301231,43.6700629 32.1764593,43.8665097 L31.7408098,44.191185 L31.4508198,44.3945994 L31.0975202,44.628537 L30.7705011,44.8328058 L30.4690567,45.0110975 L30.1080962,45.2120814 L29.7830369,45.3822396 L29.548216,45.4990146 L29.040508,45.7340397 L28.5965888,45.9211165 L28.221637,46.06615 L27.8486696,46.1990416 L27.2595627,46.3865739 C27.0370645,46.4523641 26.8122607,46.5131601 26.5853803,46.5688057 L26.1113497,46.6768962 L25.7765082,46.7435367 L25.412361,46.8070395 L25.0007623,46.8677262 L25,49 L27.5,49 C28.3284271,49 29,49.6715729 29,50.5 C29,51.3284271 28.3284271,52 27.5,52 L25,52 L25,54 C25,55.1045695 24.1045695,56 23,56 C21.8954305,56 21,55.1045695 21,54 L21,52 L18.5,52 C17.6715729,52 17,51.3284271 17,50.5 C17,49.6715729 17.6715729,49 18.5,49 L21,49 L21.0003885,46.8678804 C13.6614809,45.8902661 8,39.6062879 8,32 C8,23.7157288 14.7157288,17 23,17 C23.4096151,17 23.8153955,17.0164186 24.2167189,17.0486336 C23.3344212,18.2668216 22.6105316,19.6073094 22.0742842,21.0394372 C16.5279681,21.500576 12.1505964,26.0775971 12.0038042,31.7078561 L12,32 C12,38.0751322 16.9248678,43 23,43 L23.4219093,42.9920578 L23.5785514,42.985047 L23.951879,42.9593875 L24,42.9537327 L24.0548925,42.9500724 L24.3402857,42.9191689 L24.7882474,42.855377 L25.0456635,42.8101359 L25.586021,42.694307 L25.7739152,42.6472677 C25.9025335,42.6138532 26.030237,42.5781698 26.1569804,42.5402627 L26.471983,42.4408319 L26.8253497,42.316609 L27.157854,42.187053 L27.601,41.9937327 L27.9903528,41.8055064 L28.2919529,41.6457445 L28.6282335,41.4530542 L28.8254588,41.3325477 C31.0632358,39.932754 32.7613916,37.7504486 33.5367043,35.1688535 L33.6221166,34.8653333 C33.7631453,34.3432288 33.8663888,33.8058315 33.9289801,33.2561675 L33.9669051,32.8596435 L33.989535,32.4840806 Z M55.9899495,9.14142136 L54.9899495,16.1414214 C54.8734119,16.9571846 53.8755813,17.2897948 53.2928932,16.7071068 L51.707,15.1217327 L49.4820166,17.3473579 C51.6773844,19.956083 53,23.3235848 53,27 C53,35.2842712 46.2842712,42 38,42 C37.5903849,42 37.1846045,41.9835814 36.7832811,41.9513664 C37.6655788,40.7331784 38.3894684,39.3926906 38.9257158,37.9605628 C44.5676581,37.4914733 49,32.7633511 49,27 C49,20.9248678 44.0751322,16 38,16 C31.9248678,16 27,20.9248678 27,27 C27,30.5181199 28.6515981,33.6504884 31.2217402,35.6640514 C30.6694091,36.9043558 29.8432125,37.9967644 28.8205464,38.8647339 C25.279506,36.1204993 23,31.8264532 23,27 C23,18.7157288 29.7157288,12 38,12 C41.1643538,12 44.099854,12.9798387 46.5196459,14.6526614 L48.878,12.2927327 L47.2928932,10.7071068 C46.7102052,10.1244187 47.0428154,9.12658811 47.8585786,9.01005051 L54.8585786,8.01005051 C55.518545,7.9157696 56.0842304,8.48145503 55.9899495,9.14142136 Z" id="Shape" fill="#000000"></path>
    </g>
</svg>