<?xml version="1.0" encoding="UTF-8"?>
<svg width="64px" height="64px" viewBox="0 0 64 64" version="1.1" xmlns="http://www.w3.org/2000/svg" xmlns:xlink="http://www.w3.org/1999/xlink">
    <title>litter_hopper_status</title>
    <g id="litter_hopper_status" stroke="none" fill="none">
        <path d="M50,8 C52.2444717,8 52.7863859,11.1285863 50.6726728,11.8834838 C42.1732211,14.9190023 38,21.4769212 38,32 L38,54 C38,55.486764 36.435375,56.4537555 35.1055728,55.7888544 L21.1862233,48.8291796 C16.7820309,46.6270834 14,42.1256629 14,37.2016261 L14,10 C14,8.8954305 14.8954305,8 16,8 L50,8 Z M42.225,12 L18,12 L17.999,29 L23,29 L23,39.17 L22.9882237,39.1748959 C21.8291869,39.5900389 21,40.6981859 21,42 C21,43.6568542 22.3431458,45 24,45 L30,45 C31.6568542,45 33,43.6568542 33,42 L32.9949073,41.8237272 C32.9278806,40.6669244 32.2053958,39.685967 31.1933113,39.2467135 L31,39.17 L31,28.999 L34.1110827,28.9998701 C34.6659715,21.7220465 37.2979843,16.0876193 41.9678961,12.2100926 L42.225,12 Z M28,24 C28.5522847,24 29,24.4477153 29,25 L29,40 C29,40.5128358 29.3860402,40.9355072 29.8833789,40.9932723 L30,41 C30.5522847,41 31,41.4477153 31,42 C31,42.5522847 30.5522847,43 30,43 L24,43 C23.4477153,43 23,42.5522847 23,42 C23,41.4871642 23.3860402,41.0644928 23.8833789,41.0067277 L24,41 C24.5522847,41 25,40.5522847 25,40 L25,27 C25,26.4871642 24.6139598,26.0644928 24.1166211,26.0067277 L24,26 C23.4477153,26 23,25.5522847 23,25 C23,24.4477153 23.4477153,24 24,24 L28,24 Z M27,15 C28.6568542,15 30,16.3431458 30,18 C30,19.6568542 28.6568542,21 27,21 C25.3431458,21 24,19.6568542 24,18 C24,16.3431458 25.3431458,15 27,15 Z" id="Shape" fill="#000000" fill-rule="nonzero"></path>
        <g id="Group" stroke-width="1" fill-rule="evenodd" transform="translate(23, 15)"></g>
    </g>
</svg>