<?xml version="1.0" encoding="UTF-8"?>
<svg width="64px" height="64px" viewBox="0 0 64 64" version="1.1" xmlns="http://www.w3.org/2000/svg" xmlns:xlink="http://www.w3.org/1999/xlink">
    <title>litter_robot_status</title>
    <g id="litter_robot_status" stroke="none" fill="none" fill-rule="evenodd">
        <path d="M32,8 C45.254834,8 56,18.745166 56,32 C56,36.1025524 54.9706269,39.9646819 53.1560715,43.3421975 C52.3849558,45.7547724 52,47.9736251 52,50 L51.9999997,51.2070313 C52.0003208,51.8064131 51.7318041,52.3743416 51.2683741,52.7544619 C48.6813473,54.8778261 42.4465355,55.959551 32.5633236,55.9988867 L32,56 C21.7900391,56 15.3674645,54.9178896 12.7322764,52.7536688 C12.2681959,52.3743416 11.9996792,51.8064131 12.0000003,51.2070313 L12,50 C12,47.9736251 11.6150442,45.7547724 10.8451326,43.3434417 C9.02937311,39.9646819 8,36.1025524 8,32 C8,18.745166 18.745166,8 32,8 Z M32,12 C20.954305,12 12,20.954305 12,32 C12,43.045695 20.954305,52 32,52 C43.045695,52 52,43.045695 52,32 C52,20.954305 43.045695,12 32,12 Z M36.0004433,33.2354593 C41.7388767,33.9227701 46.435942,36.0570715 48.6416718,38.873103 C45.9403793,45.4046617 39.5068391,50 32,50 C24.4931609,50 18.0596207,45.4046617 15.3589758,38.8735817 C17.5643052,36.056995 22.2616927,33.9225373 28.0005642,33.2353421 L28,40.17 L27.9882237,40.1748959 C26.8291869,40.5900389 26,41.6981859 26,43 C26,44.6568542 27.3431458,46 29,46 L35,46 C36.6568542,46 38,44.6568542 38,43 L37.9949073,42.8237272 C37.9239379,41.5988771 37.1181296,40.5711687 36.0117763,40.1748959 L36,40.17 L36.0004433,33.2354593 Z M33,25 C33.5522847,25 34,25.4477153 34,26 L34,41 C34,41.5522847 34.4477153,42 35,42 C35.5522847,42 36,42.4477153 36,43 C36,43.5522847 35.5522847,44 35,44 L29,44 C28.4477153,44 28,43.5522847 28,43 C28,42.4477153 28.4477153,42 29,42 C29.5522847,42 30,41.5522847 30,41 L30,28 C30,27.4477153 29.5522847,27 29,27 C28.4477153,27 28,26.5522847 28,26 C28,25.4477153 28.4477153,25 29,25 L33,25 Z M32,16 L32.1762728,16.0050927 C33.75108,16.0963391 35,17.4023191 35,19 C35,20.6568542 33.6568542,22 32,22 C30.3431458,22 29,20.6568542 29,19 C29,17.3431458 30.3431458,16 32,16 Z" id="Combined-Shape" fill="#000000"></path>
    </g>
</svg>