<?xml version="1.0" encoding="UTF-8"?>
<svg width="64px" height="64px" viewBox="0 0 64 64" version="1.1" xmlns="http://www.w3.org/2000/svg" xmlns:xlink="http://www.w3.org/1999/xlink">
    <title>litter_hopper_enabled</title>
    <g id="litter_hopper_enabled" stroke="none" fill="none" fill-rule="nonzero">
        <path d="M50,8 C52.2444717,8 52.7863859,11.1285863 50.6726728,11.8834838 C42.1732211,14.9190023 38,21.4769212 38,32 L37.999,44.841 L36.8283142,43.6712779 C35.3183647,42.1613369 32.9014221,42.1110055 31.3309424,43.5203477 L31.1715704,43.6713486 C29.6094765,45.2334336 29.6094765,47.7660784 31.1715704,49.3281633 L37.3336913,55.4910966 C36.7551958,56.0056364 35.889574,56.180855 35.1055728,55.7888544 L21.1862233,48.8291796 C16.7820309,46.6270834 14,42.1256629 14,37.2016261 L14,10 C14,8.8954305 14.8954305,8 16,8 L50,8 Z M35.4141755,45.0855662 L41.1368981,50.8076835 L52.3037769,32.9399863 C52.889191,32.003329 54.123078,31.7185875 55.0597407,32.3039983 C55.9964033,32.8894091 56.2811464,34.1232891 55.6957323,35.0599464 L43.1958717,55.0596098 C42.5142105,56.1502615 40.9951457,56.3232638 40.0856962,55.4138195 L32.5857799,47.9139457 C31.80474,47.1329103 31.80474,45.8666017 32.5857799,45.0855662 C32.9968535,44.6744949 33.5423526,44.479777 34.0807767,44.5014123 L34.2419501,44.5143935 C34.6704254,44.5663183 35.0853166,44.7567092 35.4141755,45.0855662 Z M42.225,12 L18,12 L17.999,29 L34.1110827,29 C34.6659715,21.7220465 37.2979843,16.0876193 41.9678961,12.2100926 L42.225,12 Z" id="Shape" fill="#000000"></path>
    </g>
</svg>