<?xml version="1.0" encoding="UTF-8"?>
<svg width="64px" height="64px" viewBox="0 0 64 64" version="1.1" xmlns="http://www.w3.org/2000/svg" xmlns:xlink="http://www.w3.org/1999/xlink">
    <title>waste_drawer_level_percentage</title>
    <g id="waste_drawer_level_percentage" stroke="none" fill="none" fill-rule="evenodd">
        <path d="M32,8 C45.254834,8 56,18.745166 56,32 C56,36.1025524 54.9706269,39.9646819 53.1560715,43.3421975 C52.3849558,45.7547724 52,47.9736251 52,50 L52,51.2070313 C52.0003208,51.8064131 51.7318041,52.3743416 51.2683741,52.7544619 C48.6813473,54.8778261 42.4465355,55.959551 32.5633236,55.9988867 L32,56 L30.8811458,55.9955469 C21.3194881,55.9183593 15.269865,54.8377333 12.7322764,52.7536688 C12.2681959,52.3743416 11.9996792,51.8064131 12,51.2070313 L12,50 C12,47.9736251 11.6150442,45.7547724 10.8451326,43.3434417 C9.02937311,39.9646819 8,36.1025524 8,32 C8,18.745166 18.745166,8 32,8 Z M32,12 C20.954305,12 12,20.954305 12,32 C12,43.045695 20.954305,52 32,52 C43.045695,52 52,43.045695 52,32 C52,20.954305 43.045695,12 32,12 Z M49.643065,28.4154554 C49.8771464,29.5738591 50,30.7725825 50,32 C50,41.9411255 41.9411255,50 32,50 C22.0588745,50 14,41.9411255 14,32 C14,30.7725825 14.1228536,29.5738591 14.356935,28.4154554 C18.9911313,30.6404874 25.1897949,32 32,32 C38.7401282,32 44.8812356,30.6683222 49.5006504,28.4840461 L49.643065,28.4154554 Z M37,43.0003 L27,43.0003 C26.4477153,43.0003 26,43.4480153 26,44.0003 C26,44.5525847 26.4477153,45.0003 27,45.0003 L37,45.0003 C37.5522847,45.0003 38,44.5525847 38,44.0003 C38,43.4480153 37.5522847,43.0003 37,43.0003 Z M37,35.0002 L27,35.0002 C26.4477153,35.0002 26,35.4479153 26,36.0002 C26,36.5524847 26.4477153,37.0002 27,37.0002 L37,37.0002 C37.5522847,37.0002 38,36.5524847 38,36.0002 C38,35.4479153 37.5522847,35.0002 37,35.0002 Z M37,27.0001 C37.5522847,27.0001 38,27.4478153 38,28.0001 C38,28.5523847 37.5522847,29.0001 37,29.0001 L27,29.0001 C26.4477153,29.0001 26,28.5523847 26,28.0001 C26,27.4478153 26.4477153,27.0001 27,27.0001 L37,27.0001 Z M37,19 C37.5522847,19 38,19.4477153 38,20 C38,20.5522847 37.5522847,21 37,21 L27,21 C26.4477153,21 26,20.5522847 26,20 C26,19.4477153 26.4477153,19 27,19 L37,19 Z" id="Shape" fill="#000000"></path>
    </g>
</svg>