<?xml version="1.0" encoding="UTF-8"?>
<svg width="64px" height="64px" viewBox="0 0 64 64" version="1.1" xmlns="http://www.w3.org/2000/svg" xmlns:xlink="http://www.w3.org/1999/xlink">
    <title>scoops_saved_count</title>
    <g id="scoops_saved_count" stroke="none" fill="none">
        <g id="Group" stroke-width="1" fill-rule="evenodd" transform="translate(36, 36) rotate(-45) translate(-36, -36)translate(19, 9)"></g>
        <path d="M30.4142136,6.58578644 L48.0502525,24.2218254 C52.3460197,28.5175926 52.3460197,35.4824074 48.0502525,39.7781746 L46.044,41.784 L54.6408268,49.1526649 C54.6786434,49.185079 54.7158309,49.2182131 54.752369,49.2520483 L54.860015,49.3556391 C56.379995,50.8756124 56.379995,53.3399761 54.860015,54.8599494 C54.7895766,54.9303875 54.7164601,54.9980954 54.6408268,55.0629236 C53.0087468,56.4618432 50.5516311,56.2728351 49.1527053,54.6407623 L41.784,46.044 L39.7781746,48.0502525 C35.4824074,52.3460197 28.5175926,52.3460197 24.2218254,48.0502525 L6.58578644,30.4142136 C5.80473785,29.633165 5.80473785,28.366835 6.58578644,27.5857864 L27.5857864,6.58578644 C28.366835,5.80473785 29.633165,5.80473785 30.4142136,6.58578644 Z M29,10.829 L10.829,29 L10.829,29 L14.9289322,29 C16.2550146,29 17.5267842,29.5267842 18.4644661,30.4644661 L29.8786797,41.8786797 C31.0502525,43.0502525 32.9497475,43.0502525 34.1213203,41.8786797 L41.8786797,34.1213203 C43.0502525,32.9497475 43.0502525,31.0502525 41.8786797,29.8786797 L30.4644661,18.4644661 C29.5267842,17.5267842 29,16.2550146 29,14.9289322 L29,10.829 Z" id="Combined-Shape" fill="#000000" fill-rule="nonzero"></path>
    </g>
</svg>