<?xml version="1.0" encoding="UTF-8"?>
<svg width="64px" height="64px" viewBox="0 0 64 64" version="1.1" xmlns="http://www.w3.org/2000/svg" xmlns:xlink="http://www.w3.org/1999/xlink">
    <title>litter_level_percentage</title>
    <g id="litter_level_percentage" stroke="none" fill="none" fill-rule="evenodd">
        <path d="M32,8 C45.254834,8 56,18.745166 56,32 C56,36.1025524 54.9706269,39.9646819 53.1560715,43.3421975 C52.3849558,45.7547724 52,47.9736251 52,50 L52,51.2070313 C52.0003208,51.8064131 51.7318041,52.3743416 51.2683741,52.7544619 C48.6813473,54.8778261 42.4465355,55.959551 32.5633236,55.9988867 L32,56 L30.8811458,55.9955469 C21.3194881,55.9183593 15.269865,54.8377333 12.7322764,52.7536688 C12.2681959,52.3743416 11.9996792,51.8064131 12,51.2070313 L12,50 C12,47.9736251 11.6150442,45.7547724 10.8451326,43.3434417 C9.02937311,39.9646819 8,36.1025524 8,32 C8,18.745166 18.745166,8 32,8 Z M32,12 C20.954305,12 12,20.954305 12,32 C12,43.045695 20.954305,52 32,52 C43.045695,52 52,43.045695 52,32 C52,20.954305 43.045695,12 32,12 Z M37,43.0003 C37.5522847,43.0003 38,43.4480153 38,44.0003 C38,44.5525847 37.5522847,45.0003 37,45.0003 L27,45.0003 C26.4477153,45.0003 26,44.5525847 26,44.0003 C26,43.4480153 26.4477153,43.0003 27,43.0003 L37,43.0003 Z M37,35.0002 C37.5522847,35.0002 38,35.4479153 38,36.0002 C38,36.5524847 37.5522847,37.0002 37,37.0002 L27,37.0002 C26.4477153,37.0002 26,36.5524847 26,36.0002 C26,35.4479153 26.4477153,35.0002 27,35.0002 L37,35.0002 Z M32,14 C41.9411255,14 50,22.0588745 50,32 C50,33.2274175 49.8771464,34.4261409 49.643065,35.5845446 C45.0088687,33.3595126 38.8102051,32 32,32 C25.1897949,32 18.9911313,33.3595126 14.3557603,35.5845446 C14.1228536,34.4261409 14,33.2274175 14,32 C14,22.0588745 22.0588745,14 32,14 Z M37,27.0001 L27,27.0001 C26.4477153,27.0001 26,27.4478153 26,28.0001 C26,28.5523847 26.4477153,29.0001 27,29.0001 L37,29.0001 C37.5522847,29.0001 38,28.5523847 38,28.0001 C38,27.4478153 37.5522847,27.0001 37,27.0001 Z M37,19 L27,19 C26.4477153,19 26,19.4477153 26,20 C26,20.5522847 26.4477153,21 27,21 L37,21 C37.5522847,21 38,20.5522847 38,20 C38,19.4477153 37.5522847,19 37,19 Z" id="Shape" fill="#000000"></path>
    </g>
</svg>