<?xml version="1.0" encoding="UTF-8"?>
<svg width="64px" height="64px" viewBox="0 0 64 64" version="1.1" xmlns="http://www.w3.org/2000/svg" xmlns:xlink="http://www.w3.org/1999/xlink">
    <title>start_empty_cycle_v3</title>
    <g id="start_empty_cycle_v3" stroke="none" fill="none" transform="translate(0, -0)" fill-rule="evenodd">
        <path d="M54.0246744,33.7282904 C55.113413,33.9146291 55.8449526,34.9482835 55.6586138,36.037022 C54.4623392,43.0266064 50.261869,49.169318 44,52.7846097 C32.8110195,59.2445706 18.5825167,55.6710327 11.7329967,44.855626 L10.179607,45.7527103 C9.99477101,45.8594254 9.78545983,45.9163586 9.57236285,45.9178824 C8.89608702,45.9227181 8.34690278,45.3801383 8.34572553,44.7059965 L8.33250442,37.1361505 C8.33250442,36.9181958 8.39029475,36.7037978 8.50097102,36.5152277 C8.8432968,35.9319735 9.59361233,35.7332291 10.1768476,36.0713195 L16.725917,39.8676907 C16.9096965,39.9742243 17.0621446,40.1268755 17.1681924,40.3105557 C17.5047413,40.8934755 17.3020448,41.6405689 16.715457,41.9792355 L15.2003803,42.8531451 C20.9420205,51.756608 32.7243397,54.6758131 42,49.3205081 C47.2207352,46.3063152 50.7182375,41.1916147 51.7159427,35.3622298 C51.9022814,34.2734912 52.9359358,33.5419516 54.0246744,33.7282904 Z M32,21 C33.1045695,21 34,21.8954305 34,23 L33.9993992,31.9999926 L37.8537852,32 C38.4868222,32 39,32.4814823 39,33.0754208 C39,33.2744379 38.9411392,33.4695514 38.8299686,33.639046 L33.0520023,42.4483334 C32.6944882,42.9934117 31.9337044,43.163363 31.352744,42.8279302 C31.1880739,42.7328536 31.0494942,42.602833 30.9481587,42.4483334 L25.1701924,33.639046 C24.8384194,33.1332134 25.0065164,32.4708114 25.5456476,32.1595297 C25.7262998,32.0552254 25.9342575,32 26.1463758,32 L29.9993992,31.9999926 L30,23 C30,21.8954305 30.8954305,21 32,21 Z M52.2664669,19.143527 L53.820393,18.2472897 C54.005229,18.1405746 54.2145402,18.0836414 54.4276372,18.0821176 C55.103913,18.0772819 55.6530972,18.6198617 55.6542745,19.2940035 L55.6674956,26.8638495 C55.6674956,27.0818042 55.6097053,27.2962022 55.499029,27.4847723 C55.1567032,28.0680265 54.4063877,28.2667709 53.8231524,27.9286805 L47.274083,24.1323093 C47.0903035,24.0257757 46.9378554,23.8731245 46.8318076,23.6894443 C46.4952587,23.1065245 46.6979552,22.3594311 47.284543,22.0207645 L48.7990786,21.1460159 C43.0572393,12.2432087 31.2753689,9.32435516 22,14.6794919 C16.7792648,17.6936848 13.2817625,22.8083853 12.2840573,28.6377702 C12.0977186,29.7265088 11.0640642,30.4580484 9.97532561,30.2717096 C8.88658705,30.0853709 8.15504745,29.0517165 8.34138617,27.962978 C9.53766075,20.9733936 13.738131,14.830682 20,11.2153903 C31.1886884,4.75559806 45.4167405,8.32878077 52.2664669,19.143527 Z" id="Combined-Shape" fill="#000000"></path>
    </g>
</svg>