<?xml version="1.0" encoding="UTF-8"?>
<svg width="64px" height="64px" viewBox="0 0 64 64" version="1.1" xmlns="http://www.w3.org/2000/svg" xmlns:xlink="http://www.w3.org/1999/xlink">
    <title>nightlight_3</title>
    <g id="nightlight_3" stroke="none" fill="none" fill-rule="evenodd">
        <path d="M27,43 C27,43.5522847 27.4477153,44 28,44 L36,44 C36.5128358,44 36.9355072,43.6139598 36.9932723,43.1166211 L37,43 C37,37 46,30 46,22 C46,14 40,8 32,8 C24,8 18,14 18,22 C18,30 27,37 27,43 Z M28,46 L36,46 C37.1045695,46 38,46.8954305 38,48 C38,49.1045695 37.1045695,50 36,50 L28,50 C26.8954305,50 26,49.1045695 26,48 C26,46.8954305 26.8954305,46 28,46 Z M36,52 C36.743382,52 37.2268777,52.7823125 36.8944272,53.4472136 C36.1121691,55.0117298 34.5131143,56 32.763932,56 L31.236068,56 C29.4868857,56 27.8878309,55.0117298 27.1055728,53.4472136 C26.7731223,52.7823125 27.256618,52 28,52 L36,52 Z" id="Shape" fill="#000000"></path>
    </g>
</svg>