<?xml version="1.0" encoding="UTF-8"?>
<svg width="64px" height="64px" viewBox="0 0 64 64" version="1.1" xmlns="http://www.w3.org/2000/svg" xmlns:xlink="http://www.w3.org/1999/xlink">
    <title>waste_drawer_reset</title>
    <g id="waste_drawer_reset" stroke="none" fill="none" fill-rule="nonzero">
        <path d="M32,8 C45.254834,8 56,18.745166 56,32 C56,36.1025524 54.9706269,39.9646819 53.1560715,43.3421975 C52.3849558,45.7547724 52,47.9736251 52,50 L52,51.2070313 C52.0003208,51.8064131 51.7318041,52.3743416 51.2683741,52.7544619 C48.6813473,54.8778261 42.4465355,55.959551 32.5633236,55.9988867 L32,56 C21.7900391,56 15.3674645,54.9178896 12.7322764,52.7536688 C12.2681959,52.3743416 11.9996792,51.8064131 12,51.2070313 L12,50 C12,47.9736251 11.6150442,45.7547724 10.8451326,43.3434417 C9.02937311,39.9646819 8,36.1025524 8,32 C8,18.745166 18.745166,8 32,8 Z M32,12 C20.954305,12 12,20.954305 12,32 C12,43.045695 20.954305,52 32,52 C43.045695,52 52,43.045695 52,32 C52,20.954305 43.045695,12 32,12 Z M32,33 C39.5074391,33 45.9414079,35.4257052 48.6416718,38.873103 C45.9403793,45.4046617 39.5068391,50 32,50 C24.4931609,50 18.0596207,45.4046617 15.3589758,38.8735817 C18.0585921,35.4257052 24.4925609,33 32,33 Z M39,19.8756443 C42.2923849,21.7765037 44.6167778,24.8796647 45.55205,28.4868803 C45.6518664,28.8718583 45.7353311,29.260932 45.8021877,29.6529826 C45.98787,30.7418333 45.2557074,31.7750465 44.1668567,31.9607288 C43.078006,32.1464111 42.0447928,31.4142485 41.8591105,30.3253978 C41.811265,30.0448294 41.7515263,29.7663553 41.6800802,29.4907976 C41.0112018,26.9110263 39.3543109,24.699008 37,23.339746 C32.5309227,20.759523 26.8980642,22.0209549 23.9253549,26.0994228 L25.3755292,26.9366849 C25.5603651,27.0434 25.7143263,27.1962022 25.8221944,27.3799877 C26.1645202,27.9632419 25.9692244,28.7101393 25.3859891,29.0482298 L18.8369198,32.844601 C18.6483558,32.9539079 18.4335971,33.010731 18.2149525,33.009199 C17.5386767,33.0043319 16.9914012,32.4539118 16.9925765,31.77977 L17.0057977,24.209924 C17.0061686,23.9974994 17.0621445,23.7891499 17.1681923,23.6054697 C17.5047412,23.0225499 18.2530913,22.8245435 18.8396791,23.1632101 L20.4471603,24.0911009 C24.5370628,18.1031072 32.6165239,16.1901427 39,19.8756443 Z" id="Shape" fill="#000000"></path>
    </g>
</svg>