<?xml version="1.0" encoding="UTF-8"?>
<svg width="64px" height="64px" viewBox="0 0 64 64" version="1.1" xmlns="http://www.w3.org/2000/svg" xmlns:xlink="http://www.w3.org/1999/xlink">
    <title>short_reset_press</title>
    <g id="short_reset_press" stroke="none" fill="none" fill-rule="evenodd">
        <path d="M52.2670033,19.144374 L53.820393,18.2472897 C54.005229,18.1405746 54.2145402,18.0836414 54.4276372,18.0821176 C55.103913,18.0772819 55.6530972,18.6198617 55.6542745,19.2940035 L55.6674956,26.8638495 C55.6674956,27.0818042 55.6097053,27.2962022 55.499029,27.4847723 C55.1567032,28.0680265 54.4063877,28.2667709 53.8231524,27.9286805 L47.274083,24.1323093 C47.0903035,24.0257757 46.9378554,23.8731245 46.8318076,23.6894443 C46.4952587,23.1065245 46.6979552,22.3594311 47.284543,22.0207645 L48.7996197,21.1468549 C43.0579795,12.243392 31.2756603,9.32418695 22,14.6794919 C12.4341475,20.2023394 9.15664443,32.4341475 14.6794919,42 C20.2023394,51.5658525 32.4341475,54.8433556 42,49.3205081 C42.9565852,48.7682233 44.1797661,49.0959736 44.7320508,50.0525589 C45.2843356,51.0091441 44.9565852,52.2323249 44,52.7846097 C32.520977,59.4120267 17.8428073,55.479023 11.2153903,44 C4.58797331,32.520977 8.52097704,17.8428073 20,11.2153903 C31.1889805,4.75542942 45.4174833,8.32896734 52.2670033,19.144374 Z M49.6822349,45.2485413 C50.503088,45.9876449 50.569359,47.2522396 49.8302554,48.0730926 C49.0911519,48.8939456 47.8265572,48.9602167 47.0057041,48.2211131 C46.1848511,47.4820095 46.1185801,46.2174148 46.8576837,45.3965618 C47.5967872,44.5757088 48.8613819,44.5094378 49.6822349,45.2485413 Z M52.967757,38.9616695 C53.9798357,39.4041291 54.4416032,40.5832654 53.9991437,41.5953441 C53.5566841,42.6074228 52.3775478,43.0691903 51.3654691,42.6267307 C50.3533904,42.1842711 49.8916229,41.0051349 50.3340825,39.9930562 C50.7765421,38.9809775 51.9556783,38.51921 52.967757,38.9616695 Z M25.4142136,22.5857864 L31.9994567,29.1714567 L38.5857864,22.5857864 C39.366835,21.8047379 40.633165,21.8047379 41.4142136,22.5857864 C42.1952621,23.366835 42.1952621,24.633165 41.4142136,25.4142136 L34.8274567,31.9994567 L41.4142136,38.5857864 C42.1952621,39.366835 42.1952621,40.633165 41.4142136,41.4142136 C40.633165,42.1952621 39.366835,42.1952621 38.5857864,41.4142136 L31.9994567,34.8274567 L25.4142136,41.4142136 C24.633165,42.1952621 23.366835,42.1952621 22.5857864,41.4142136 C21.8047379,40.633165 21.8047379,39.366835 22.5857864,38.5857864 L29.1714567,31.9994567 L22.5857864,25.4142136 C21.8047379,24.633165 21.8047379,23.366835 22.5857864,22.5857864 C23.366835,21.8047379 24.633165,21.8047379 25.4142136,22.5857864 Z M55.815822,33.1563129 C56.2793922,34.1588978 55.8424343,35.3474513 54.8398494,35.8110215 C53.8372645,36.2745916 52.648711,35.8376338 52.1851409,34.8350488 C51.7215707,33.8324639 52.1585286,32.6439104 53.1611135,32.1803403 C54.1636984,31.7167702 55.3522519,32.153728 55.815822,33.1563129 Z" id="Shape" fill="#000000"></path>
        <g id="Group" stroke-width="1" transform="translate(23.8388, 22.8388)"></g>
    </g>
</svg>