<?xml version="1.0" encoding="UTF-8"?>
<svg width="64px" height="64px" viewBox="0 0 64 64" version="1.1" xmlns="http://www.w3.org/2000/svg" xmlns:xlink="http://www.w3.org/1999/xlink">
    <title>sleep_mode_start_time</title>
    <g id="sleep_mode_start_time" stroke="none" fill="none" fill-rule="evenodd">
        <path d="M43.3674895,37.3802579 C42.9064878,38.5008112 42.6663331,39.7057946 42.6663331,40.9462685 C42.6663331,46.1313267 46.8696263,50.3346468 52.0546512,50.3346468 C53.2945905,50.3346468 54.4994126,50.0946933 55.6201937,49.6341724 C56.4416587,49.2966384 57.2626845,50.1175759 56.9252463,50.9390846 C55.1849408,55.175938 51.0482444,58.001029 46.3883006,58.001029 C40.0987159,58.001029 35,52.9022804 35,46.6126554 C35,41.9526366 37.8250891,37.8160131 42.0626487,36.0748305 C42.8843617,35.7371946 43.7054873,36.5586893 43.3674895,37.3802579 Z M31.9940752,8 C33.0986447,8 33.9940752,8.8954305 33.9940752,10 C33.9940752,11.1045695 33.0986447,12 31.9940752,12 C20.9483802,12 11.9940752,20.954305 11.9940752,32 C11.9940752,43.045695 20.9483802,52 31.9940752,52 C33.0986447,52 33.9940752,52.8954305 33.9940752,54 C33.9940752,55.1045695 33.0986447,56 31.9940752,56 C18.7392412,56 7.99407515,45.254834 7.99407515,32 C7.99407515,18.745166 18.7392412,8 31.9940752,8 Z M49.9014662,40.9132976 C50.3923071,39.923778 51.5923763,39.5195189 52.5818959,40.0103598 C53.5714155,40.5012006 53.9756745,41.7012699 53.4848337,42.6907895 C52.8340024,44.0028447 52.0674173,45.2460914 51.1948754,46.4089187 C50.5319287,47.2924206 49.2782845,47.4712159 48.3947827,46.8082693 C47.5112808,46.1453227 47.3324854,44.8916785 47.9954321,44.0081766 C48.7215645,43.0404677 49.3595496,42.0057844 49.9014662,40.9132976 Z M31.9987138,17 C32.5700023,17 33.051889,17.425401 33.1227486,17.9922779 L34.9069542,32.2607814 C34.9668749,32.4972465 34.9987138,32.7449051 34.9987138,33 C34.9987138,34.0543225 34.4548358,34.9816155 33.6293033,35.5185925 C33.3333369,35.7106012 33.0013957,35.8518576 32.6458083,35.9300332 L24.2405474,39.4438719 C23.7063055,39.6672971 23.088727,39.4766864 22.7733376,38.9910294 C22.4579482,38.5053724 22.5350085,37.863658 22.9564133,37.4664789 L29.1727138,31.607 L30.8746791,17.9922779 C30.9455387,17.425401 31.4274254,17 31.9987138,17 Z M53.7310509,28.0358265 C54.8311305,27.9363354 55.8035748,28.7474727 55.9030659,29.8475524 C56.0341466,31.2969209 56.0326225,32.7577528 55.8964404,34.2141269 C55.7936034,35.3138989 54.8186961,36.1220743 53.7189242,36.0192372 C52.6191523,35.9164001 51.8109769,34.9414929 51.9138139,33.841721 C52.0271499,32.6296703 52.0284181,31.4140922 51.9193249,30.2078415 C51.8198339,29.1077618 52.6309712,28.1353176 53.7310509,28.0358265 Z M48.4961237,17.3089085 C49.3847743,16.6528796 50.6369844,16.8414567 51.2930133,17.7301073 C52.1581939,18.9020728 52.9155854,20.1506979 53.5555434,21.4593923 C54.0407744,22.4516749 53.6297279,23.6494363 52.6374453,24.1346673 C51.6451628,24.6198983 50.4474014,24.2088518 49.9621704,23.2165692 C49.4282939,22.1248081 48.7964847,21.0832161 48.0749249,20.1057982 C47.418896,19.2171476 47.6074731,17.9649374 48.4961237,17.3089085 Z M38.4264501,10.8676441 C38.8413633,9.84396403 40.0075736,9.35046102 41.0312536,9.76537424 C42.3900355,10.3161094 43.6867551,10.9856597 44.9101286,11.7655117 C45.8415484,12.3592549 46.1152893,13.5956438 45.5215462,14.5270636 C44.927803,15.4584834 43.6914141,15.7322244 42.7599943,15.1384812 C41.7414897,14.4892249 40.6614951,13.9315787 39.52872,13.4724476 C38.5050399,13.0575343 38.0115369,11.8913241 38.4264501,10.8676441 Z" id="Shape" fill="#000000"></path>
    </g>
</svg>