<?xml version="1.0" encoding="UTF-8"?>
<svg width="64px" height="64px" viewBox="0 0 64 64" version="1.1" xmlns="http://www.w3.org/2000/svg" xmlns:xlink="http://www.w3.org/1999/xlink">
    <title>sleep_mode_end_time</title>
    <g id="sleep_mode_end_time" stroke="none" fill="none" fill-rule="evenodd">
        <path d="M43.3675626,37.3802611 C42.9065569,38.5008171 42.6664001,39.7058033 42.6664001,40.9462801 C42.6664001,46.1313503 46.86973,50.3346802 52.0548002,50.3346802 C53.2947503,50.3346802 54.499583,50.0947262 55.6203739,49.6342043 C56.4418461,49.2966695 57.2628791,50.1176088 56.9254379,50.9391195 C55.1851172,55.1759828 51.0483847,58.0010803 46.3884002,58.0010803 C40.0987604,58.0010803 35,52.9023199 35,46.6126802 C35,41.9526505 37.8251138,37.8160174 42.0627104,36.0748307 C42.8844306,35.737194 43.7055634,36.5586907 43.3675626,37.3802611 Z M34.0813762,51.8929275 C34.6668501,53.255815 35.4720853,54.5019787 36.4524839,55.5868204 C35.0106191,55.8583525 33.5218513,56 32,56 C30.8954305,56 30,55.1045695 30,54 C30,52.8954305 30.8954305,52 32,52 C32.517767,52 33.0309386,51.980325 33.538808,51.9416819 L34.0813762,51.8929275 Z M21.3705982,48.9421197 C22.400121,49.587237 23.4865385,50.1381257 24.615328,50.5873989 C25.6415967,50.9958674 26.1424226,52.1589516 25.7339542,53.1852202 C25.3254857,54.2114888 24.1624015,54.7123148 23.1361328,54.3038463 C21.7829904,53.7652777 20.4807789,53.1049665 19.2466608,52.3316463 C18.3106689,51.7451372 18.0273571,50.5109063 18.6138662,49.5749143 C19.2003753,48.6389224 20.4346063,48.3556106 21.3705982,48.9421197 Z M32,8 C45.254834,8 56,18.745166 56,32 C56,38.151689 53.6855208,43.7628023 49.8798472,48.0100553 C48.5457297,47.5990119 47.3731817,46.8214564 46.4795865,45.7947089 C49.9007063,42.2062331 52,37.3482747 52,32 C52,20.954305 43.045695,12 32,12 C30.8954305,12 30,11.1045695 30,10 C30,8.8954305 30.8954305,8 32,8 Z M14.0926089,40.9132976 C14.6345256,42.0057844 15.2725107,43.0404677 15.9986431,44.0081766 C16.6615897,44.8916785 16.4827943,46.1453227 15.5992925,46.8082693 C14.7157906,47.4712159 13.4621464,47.2924206 12.7991998,46.4089187 C11.9266578,45.2460914 11.1600727,44.0028447 10.5092414,42.6907895 C10.0184006,41.7012699 10.4226596,40.5012006 11.4121792,40.0103598 C12.4016989,39.5195189 13.6017681,39.923778 14.0926089,40.9132976 Z M31.9987138,17 C32.5700023,17 33.051889,17.425401 33.1227486,17.9922779 L34.9069542,32.2607814 C34.9668749,32.4972465 34.9987138,32.7449051 34.9987138,33 C34.9987138,34.0543225 34.4548358,34.9816155 33.6293033,35.5185925 C33.3333369,35.7106012 33.0013957,35.8518576 32.6458083,35.9300332 L24.2405474,39.4438719 C23.7063055,39.6672971 23.088727,39.4766864 22.7733376,38.9910294 C22.4579482,38.5053724 22.5350085,37.863658 22.9564133,37.4664789 L29.1727138,31.607 L30.8746791,17.9922779 C30.9455387,17.425401 31.4274254,17 31.9987138,17 Z M10.2630243,28.0358265 C11.363104,28.1353176 12.1742413,29.1077618 12.0747502,30.2078415 C11.965657,31.4140922 11.9669252,32.6296703 12.0802612,33.841721 C12.1830983,34.9414929 11.3749229,35.9164001 10.2751509,36.0192372 C9.17537901,36.1220743 8.20047179,35.3138989 8.09763472,34.2141269 C7.96145264,32.7577528 7.95992856,31.2969209 8.09100929,29.8475524 C8.19050037,28.7474727 9.16294462,27.9363354 10.2630243,28.0358265 Z M15.4979514,17.3089085 C16.386602,17.9649374 16.5751791,19.2171476 15.9191502,20.1057982 C15.1975905,21.0832161 14.5657813,22.1248081 14.0319048,23.2165692 C13.5466738,24.2088518 12.3489124,24.6198983 11.3566298,24.1346673 C10.3643473,23.6494363 9.95330079,22.4516749 10.4385318,21.4593923 C11.0784897,20.1506979 11.8358812,18.9020728 12.7010618,17.7301073 C13.3570907,16.8414567 14.6093009,16.6528796 15.4979514,17.3089085 Z M25.567625,10.8676441 C25.9825382,11.8913241 25.4890352,13.0575343 24.4653552,13.4724476 C23.33258,13.9315787 22.2525855,14.4892249 21.2340808,15.1384812 C20.302661,15.7322244 19.0662722,15.4584834 18.472529,14.5270636 C17.8787858,13.5956438 18.1525268,12.3592549 19.0839466,11.7655117 C20.30732,10.9856597 21.6040396,10.3161094 22.9628215,9.76537424 C23.9865016,9.35046102 25.1527118,9.84396403 25.567625,10.8676441 Z" id="Shape" fill="#000000"></path>
    </g>
</svg>