<?xml version="1.0" encoding="UTF-8"?>
<svg width="64px" height="64px" viewBox="0 0 64 64" version="1.1" xmlns="http://www.w3.org/2000/svg" xmlns:xlink="http://www.w3.org/1999/xlink">
    <title>start_clean_cycle</title>
    <g id="start_clean_cycle" stroke="none" fill="none" fill-rule="evenodd">
        <path d="M54.0244799,33.7282824 C55.1132138,33.9146211 55.8447503,34.9482752 55.6584123,36.0370134 C54.4621429,43.0265956 50.2616904,49.1693053 43.9998481,52.7845959 C32.8109153,59.2445548 18.582473,55.671018 11.7329821,44.8556146 L10.179599,45.7526987 C9.99476385,45.8594137 9.78545356,45.9163469 9.57235748,45.9178707 C8.89608453,45.9227064 8.34690264,45.3801268 8.34572539,44.7059852 L8.33250434,37.1361415 C8.33250434,36.9181869 8.39029442,36.7037889 8.50097022,36.5152189 C8.84329454,35.9319649 9.59360688,35.7332205 10.1768397,36.0713108 L16.7258812,39.8676809 C16.90966,39.9742144 17.0621074,40.1268656 17.1681547,40.3105457 C17.5047022,40.8934654 17.3020065,41.6405586 16.7154213,41.9792251 L15.200351,42.8531343 C20.9419668,51.7565945 32.7242358,54.6757986 41.9998566,49.3204953 C47.2205696,46.3063034 50.718057,41.1916044 51.715758,35.3622214 C51.9020959,34.2734831 52.9357459,33.5419438 54.0244799,33.7282824 Z M27.6723365,32.0176017 C28.0101356,32.0866452 28.2741225,32.350632 28.3431659,32.6884312 L29.0220215,36.0097704 C29.121672,36.4973159 29.5026841,36.878328 29.9902296,36.9779785 L33.3115688,37.6568341 C33.7772365,37.7520129 34.0775771,38.2066688 33.9823983,38.6723365 C33.9133548,39.0101356 33.649368,39.2741225 33.3115688,39.3431659 L29.9902296,40.0220215 C29.5026841,40.121672 29.121672,40.5026841 29.0220215,40.9902296 L28.3431659,44.3115688 C28.2479871,44.7772365 27.7933312,45.0775771 27.3276635,44.9823983 C26.9898644,44.9133548 26.7258775,44.649368 26.6568341,44.3115688 L25.9779785,40.9902296 C25.878328,40.5026841 25.4973159,40.121672 25.0097704,40.0220215 L21.6884312,39.3431659 C21.2227635,39.2479871 20.9224229,38.7933312 21.0176017,38.3276635 C21.0866452,37.9898644 21.350632,37.7258775 21.6884312,37.6568341 L25.0097704,36.9779785 C25.4973159,36.878328 25.878328,36.4973159 25.9779785,36.0097704 L26.6568341,32.6884312 C26.7520129,32.2227635 27.2066688,31.9224229 27.6723365,32.0176017 Z M35.2121064,19.0216636 C35.6278592,19.1066402 35.9527661,19.4315471 36.0377427,19.8472999 L36.8732572,23.9351021 C36.9959039,24.535158 37.464842,25.0040961 38.0648979,25.1267428 L42.1527001,25.9622573 C42.7258296,26.0794005 43.0954795,26.638977 42.9783364,27.2121064 C42.8933598,27.6278592 42.5684529,27.9527661 42.1527001,28.0377427 L38.0648979,28.8732572 C37.464842,28.9959039 36.9959039,29.464842 36.8732572,30.0648979 L36.0377427,34.1527001 C35.9205995,34.7258296 35.361023,35.0954795 34.7878936,34.9783364 C34.3721408,34.8933598 34.0472339,34.5684529 33.9622573,34.1527001 L33.1267428,30.0648979 C33.0040961,29.464842 32.535158,28.9959039 31.9351021,28.8732572 L27.8472999,28.0377427 C27.2741704,27.9205995 26.9045205,27.361023 27.0216636,26.7878936 C27.1066402,26.3721408 27.4315471,26.0472339 27.8472999,25.9622573 L31.9351021,25.1267428 C32.535158,25.0040961 33.0040961,24.535158 33.1267428,23.9351021 L33.9622573,19.8472999 C34.0794005,19.2741704 34.638977,18.9045205 35.2121064,19.0216636 Z M52.2662798,19.1435235 L53.8201994,18.2472865 C54.0050345,18.1405715 54.2143448,18.0836383 54.4274409,18.0821145 C55.1037139,18.0772788 55.6528958,18.6198584 55.654073,19.294 L55.6672941,26.8638437 C55.6672941,27.0817983 55.609504,27.2961963 55.4988282,27.4847663 C55.1565038,28.0680203 54.4061915,28.2667647 53.8229587,27.9286743 L47.2739172,24.1323043 C47.0901384,24.0257708 46.937691,23.8731196 46.8316437,23.6894395 C46.4950962,23.1065198 46.6977919,22.3594266 47.2843771,22.0207601 L48.7989063,21.1460119 C43.0570914,12.2432073 31.2752712,9.32435475 21.9999418,14.6794899 C16.7792287,17.6936818 13.2817414,22.8083807 12.2840404,28.6377638 C12.0977024,29.7265021 11.0640525,30.4580414 9.97531854,30.2717028 C8.88658461,30.0853641 8.15504811,29.05171 8.34138605,27.9629718 C9.53765554,20.9733896 13.738108,14.8306799 19.9999503,11.2153893 C31.188591,4.75559906 45.4165826,8.32878067 52.2662798,19.1435235 Z" id="Shape" fill="#000000"></path>
    </g>
</svg>