<?xml version="1.0" encoding="UTF-8"?>
<svg width="201px" height="170px" viewBox="0 0 201 170" version="1.1" xmlns="http://www.w3.org/2000/svg" xmlns:xlink="http://www.w3.org/1999/xlink">
    <title>icon.svg</title>
    <defs>
        <path d="M0,0 L201,0 L201,170 L0,170 L0,0 Z" id="path-1"></path>
    </defs>
    <g id="icon.svg" stroke="none" fill="none" xlink:href="#path-1" fill-rule="nonzero">
        <path d="M100.765097,0 C118.668814,0 132.86357,0.925107642 145.224333,3.86529295 C165.465439,8.67993143 178.585178,17.2739458 187.878901,25.6410628 C202.84808,39.1177793 205.009091,61.6713957 194.361934,93.3019118 C171.192818,144.433971 139.804069,170 100.195685,170 C74.017835,170 45.3223742,152.690862 26.1056949,125.976822 C7.57636686,100.218301 1.1428183,79.6838476 0.369163913,69.0421799 C-0.404490469,58.4005122 -2.24654689,34.9162652 22.8764754,17.9136927 C47.9994976,0.911120079 82.8613798,0 100.765097,0 Z M106.47726,52.0280614 L95.0677662,61.9869598 C93.4027182,63.5988649 92.4034851,65.7927964 92.2724402,68.1244205 L92.2724402,81.6731544 C92.4842975,84.7622853 92.23426,87.8661689 91.5308232,90.8793454 C90.8329448,93.0458493 89.6630171,95.0248879 88.1079751,96.6694026 C86.7365858,98.1188366 85.1116473,99.296864 83.3159878,100.143437 C81.3844159,100.967436 79.3070505,101.381241 77.2119087,101.359349 C73.0496935,101.467258 69.0414159,99.7598713 66.2017474,96.6694026 C64.8427342,95.1259618 63.7787335,93.3391982 63.0641367,91.4004505 C62.6798214,90.4730867 62.4115099,89.5005012 62.2654721,88.5054219 C62.2654721,86.4789019 61.9231873,83.1206687 61.9231873,81.0941487 L61.9231873,53.3018739 C61.9231873,51.2753539 60.7251905,50.6963482 59.1849089,52.0859619 L48.0606526,61.9869598 C46.4118642,63.6047311 45.4326331,65.799538 45.3223742,68.1244205 L45.3223742,85.0313876 C45.3514124,87.4713688 45.5228551,89.9074609 45.8358014,92.3268597 C46.2817118,94.4137549 46.9314616,96.4503423 47.7754153,98.4064198 C50.4147346,106.078692 56.2942456,112.152309 63.8057538,114.965983 C68.2317456,116.665592 72.9369944,117.491006 77.6682885,117.397808 C82.3620939,117.486199 87.0290932,116.6607 91.4167282,114.965983 C93.8768267,113.976969 96.1826967,112.631266 98.2624244,110.970844 C99.9568778,109.696888 102.272718,109.696888 103.967171,110.970844 C106.046899,112.631266 108.352769,113.976969 110.812867,114.965983 C119.739147,118.209329 129.497562,118.209329 138.423842,114.965983 C145.93535,112.152309 151.814861,106.078692 154.45418,98.4064198 C155.33376,95.5237503 155.907488,92.5539796 156.165604,89.5476322 L156.165604,53.3018739 C156.450842,51.3911551 155.252845,50.8121493 153.712563,52.2017631 L142.30307,62.1027609 C140.677423,63.736974 139.702491,65.9221453 139.564791,68.2402216 L139.564115,82.3747721 C139.55972,84.3978267 139.526759,87.1544086 139.279554,88.9107259 C139.133516,89.9058052 138.865205,90.8783907 138.480889,91.8057546 C137.766292,93.7445023 136.702292,95.5312658 135.343278,97.0747066 C133.961303,98.5375103 132.315068,99.7169369 130.494244,100.548741 C128.582729,101.372885 126.52393,101.786859 124.447212,101.764653 C120.284997,101.872562 116.276719,100.165175 113.437051,97.0747066 C111.676372,95.1204833 110.421765,92.7528121 109.786013,90.1845385 C109.252232,87.53835 109.060459,84.8328469 109.215538,82.136359 L109.215538,53.3018739 C109.215538,51.2753539 108.017541,50.6963482 106.47726,52.0280614 Z" id="Combined-Shape" fill="#000000"></path>
    </g>
</svg>