<?xml version="1.0" encoding="UTF-8"?>
<svg width="960px" height="960px" viewBox="0 0 960 960" version="1.1" xmlns="http://www.w3.org/2000/svg" xmlns:xlink="http://www.w3.org/1999/xlink">
    <title>litter-robot-3-connect</title>
    <g id="litter-robot-3-connect" stroke="none" fill="none" fill-rule="nonzero">
        <path d="M615.488023,47.8890063 L617.210155,48.8748826 L618.148592,49.1514105 C626.892627,51.7564879 635.276366,54.785753 643.2936,58.2457838 L643.790155,58.4618826 L644.185304,58.6147377 C690.016369,76.5829291 729.962114,120.383806 760.434053,181.258146 L760.764155,181.923883 L760.944763,182.235039 C768.548907,195.42218 776.575939,209.96409 785.031025,225.866204 L786.849383,229.294621 C787.378988,230.295618 787.865843,231.318654 788.308634,232.360965 L790.240483,236.924957 L791.506144,239.933625 C803.026507,267.388519 812.305018,291.41873 819.35338,312.093925 L820.008004,314.027676 L820.678118,316.034466 L821.595147,318.823495 C828.378369,339.631236 836.446584,368.249532 845.896147,404.916676 C848.100504,413.470994 849.490272,422.214748 850.047692,431.0442 L850.342241,435.836752 L850.488248,438.318893 C852.274529,469.170883 852.605313,493.472446 851.406073,511.63611 L850.914449,518.501851 L848.776377,546.376802 L845.745922,585.570679 L845.317802,591.485319 L844.942901,596.793726 C844.820025,598.554935 844.699192,600.30877 844.580257,602.057895 L844.346696,605.538667 C843.847784,613.278577 843.368354,624.746456 842.917992,639.830019 L842.647155,649.433883 L844.910221,656.721978 C849.734043,672.267313 851.343944,688.628107 849.646059,704.808903 L849.525543,705.90769 L849.157134,709.079882 C847.98979,718.915243 846.586916,728.747721 844.948729,738.576842 C842.164151,755.284311 836.694166,773.021019 828.650629,791.917567 C823.586898,803.813712 815.845457,814.380413 806.029401,822.79457 L790.196155,836.365883 L769.71415,869.260353 C759.267554,886.036721 744.087814,899.336013 726.097911,907.487203 L725.216042,907.881538 L723.178782,908.776485 C653.575608,939.127686 566.695014,954.000883 462.492972,954.000883 C352.882093,954.000883 268.0517,932.306587 208.592205,887.102283 C194.705225,876.545562 184.49732,861.88185 179.418741,845.195425 L177.321145,838.28804 C143.343178,726.125844 123.21998,646.216632 116.828356,597.169852 C109.732921,542.722304 107.131887,492.408838 108.24925,444.611657 C109.102697,408.104003 111.932123,375.749885 116.710025,339.888501 L117.281621,335.648561 L117.910878,331.082177 C118.17957,329.152657 118.458364,327.174927 118.754673,325.094106 L121.894482,303.347606 C127.904764,261.248459 142.180364,223.30238 163.608157,189.233422 C181.644245,160.557081 204.16236,135.449374 230.702232,112.732802 C245.704313,99.8919007 261.262263,88.3891398 278.809968,76.7243059 L281.168801,75.1639186 L283.93578,73.3608924 C286.691751,71.5758295 290.074783,69.4095218 293.609889,67.1558155 L315.455825,53.2680708 C315.884463,52.9924087 316.213741,52.778862 316.429305,52.636312 C410.285265,-9.429726 512.142751,-10.6710468 615.488023,47.8890063 Z M748.784734,827.198376 C737.219385,830.3409 724.840564,833.012034 711.646838,835.214185 L709.730435,835.529349 C709.205648,843.599559 707.841957,851.264072 705.639054,858.522793 L705.620624,858.577063 C703.007903,859.630306 700.269172,860.669548 697.40443,861.694789 C696.951071,861.527959 696.675313,861.052203 696.772545,860.564218 C697.907645,854.975318 699.029277,847.751967 700.138192,838.894314 L700.37847,836.951379 C698.663096,837.196662 696.933545,837.43322 695.191097,837.662376 L695.003681,839.696782 C694.281374,847.644679 692.860531,855.738825 690.741154,863.979221 C687.809306,864.943682 684.760944,865.894983 681.596414,866.833377 C681.140313,866.653433 680.875856,866.161032 680.993869,865.671319 C682.306451,860.255877 683.662165,853.241975 685.061254,844.629674 L685.712001,840.541287 L685.984056,838.790457 C683.51345,839.071911 681.018093,839.33899 678.498073,839.591952 C678.409105,841.420709 678.308548,843.28856 678.196033,845.194055 C677.740434,852.909871 676.490406,860.804115 674.445445,868.876649 C670.569786,869.945997 666.536567,870.99727 662.346406,872.031105 L662.350708,872.007061 C663.766242,866.151967 665.146816,858.483197 666.492972,849.000883 C666.90553,846.094827 667.21617,843.294372 667.424891,840.599518 C664.843817,840.811071 662.238723,841.008428 659.609149,841.191814 C659.495462,843.78075 659.358162,846.448321 659.196033,849.194055 C658.724269,857.183639 657.400701,865.364539 655.224768,873.736599 C651.352625,874.636385 647.35732,875.522639 643.2385,876.39517 C643.221371,876.292879 643.222505,876.186337 643.241584,876.078828 L643.743234,873.238529 L644.09546,871.187693 C645.153464,864.957823 646.223405,858.031688 647.305513,850.409331 C647.735842,847.378092 648.060725,844.53697 648.280161,841.885963 C645.396695,842.041089 642.483975,842.178863 639.543268,842.300713 C639.345374,844.979487 639.120942,847.636165 638.870348,850.271753 L638.677907,852.241705 L638.47025,854.262662 C637.718363,861.409078 636.703074,869.322712 635.424845,878.003632 C631.016,878.887155 626.475402,879.755436 621.803247,880.609101 C621.725587,880.434935 621.698616,880.236216 621.735041,880.034261 L622.251089,877.164371 C623.77204,868.555183 625.067739,859.953862 626.138187,851.360407 C626.506925,848.400213 626.812605,845.518967 627.055227,842.716667 C624.300505,842.78881 621.522003,842.846196 618.720173,842.890348 C618.452108,846.722084 618.128057,850.511575 617.748706,854.258541 L617.543006,856.236754 C616.72561,863.899853 615.576112,872.482331 614.094353,881.984165 L614,882 C609.201418,882.834536 604.449992,883.632799 599.745721,884.394788 C599.727439,884.281244 599.728086,884.163057 599.750873,884.043976 C601.595018,874.475321 603.147691,864.916778 604.409183,855.368404 C604.975855,851.079195 605.403639,846.955876 605.692535,842.998447 L604.492972,843.000883 C602.081355,843.000883 599.666904,842.994797 597.24962,842.982626 C596.826343,848.200464 596.297848,853.338137 595.665115,858.396357 L595.413398,860.363581 C594.424968,867.92263 593.080385,876.374305 591.380163,885.718697 C586.288104,886.506664 581.252705,887.250507 576.2739,887.950817 L576.287312,887.870976 L576.854991,885.270849 C578.721769,876.604125 580.336976,867.941792 581.700612,859.283851 C582.610423,853.507316 583.249937,848.028815 583.619152,842.84835 C580.378275,842.803219 577.132929,842.745673 573.882536,842.677289 C573.309373,849.088964 572.581783,855.379209 571.700523,861.548027 L571.414511,863.510559 L571.108974,865.529462 C570.009143,872.668224 568.5896,880.56932 566.850493,889.232782 C561.439444,889.944443 556.097859,890.602675 550.825079,891.207981 C550.774649,891.04428 550.766385,890.865577 550.808862,890.687087 C553.085238,881.188736 555.056249,871.690204 556.722658,862.191672 C557.963917,855.116497 558.789534,848.483843 559.19951,842.29371 C555.540127,842.182596 551.873715,842.05584 548.200963,841.91547 C547.587051,849.633318 546.753477,857.177348 545.700523,864.548027 L545.414511,866.510559 L545.108247,868.53418 C544.005731,875.689793 542.582021,883.611273 540.837268,892.298647 C535.41109,892.862707 530.061472,893.367547 524.78717,893.814453 C524.791539,893.771933 524.798768,893.729504 524.808862,893.687087 C527.085238,884.188736 529.056249,874.690204 530.722658,865.191672 C532.236718,856.561532 533.132362,848.589801 533.409591,841.276479 C530.066784,841.117985 526.718768,840.946601 523.365548,840.764044 C522.739797,849.232357 521.851142,857.493692 520.700523,865.548027 L520.414511,867.510559 C519.236192,875.442402 517.646599,884.354855 515.645948,894.24796 C515.624427,894.35477 515.586279,894.454901 515.534451,894.545775 C510.271963,894.928861 505.088014,895.253331 499.981605,895.518154 C499.809715,895.288932 499.737321,894.987708 499.808862,894.687087 C502.085238,885.188736 504.056249,875.690204 505.722658,866.191672 C507.326429,857.050181 508.236328,848.647433 508.452357,840.98343 L508.478818,839.882356 C471.108381,837.491075 433.097549,833.724718 394.446445,828.583782 L395.383053,830.268481 L396.85573,832.93688 C402.479128,843.174301 406.893153,851.78272 410.106267,858.785831 L411.073138,860.922381 L412.415053,863.949652 C417.008081,874.405345 423.861999,890.879173 433.000252,913.422321 C442.584722,913.80832 452.415664,914.000883 462.492972,914.000883 C561.581394,914.000883 643.147183,900.037534 707.190338,872.110838 L709.125752,871.260471 C720.122517,866.389611 729.401622,858.326271 735.759122,848.116653 L748.784734,827.198376 Z M157.543179,597.801218 L157.300217,597.830398 C158.612757,606.808187 160.38624,616.862978 162.620663,627.994773 C166.83923,626.717116 171.641789,626.71482 176.807319,628.085267 C186.86989,630.754928 198.767939,638.594728 213.18262,651.567941 C233.392547,669.756876 251.493752,700.040919 264.251403,734.668829 C276.261898,767.268742 282.113744,800.118062 279.419431,822.211426 C277.741463,835.970765 270.686005,844.943023 259.331088,846.806394 C250.855165,848.197315 241.368965,845.34039 231.031583,839.433314 C226.226301,836.687438 221.232391,833.224997 216.431284,829.421145 L217.685098,833.546996 C220.316445,842.192677 225.604878,849.78954 232.799338,855.258685 C275.195299,887.490373 334.561278,906.457249 410.895904,912.161117 L406.640399,901.762067 C402.94558,892.774652 399.78496,885.206267 397.161393,879.062465 L395.609064,875.448484 C394.529816,872.95199 393.559082,870.743258 392.697123,868.822793 L392.379266,868.11675 C388.076991,858.590283 381.061694,845.322562 371.361477,828.392303 L368.917,824.147 L367.593504,822.011448 L366.677897,820.517884 C358.087108,806.43832 352.558954,795.469872 350.040551,787.289226 L349.910782,786.861238 C347.591912,779.093023 346.703151,769.471247 347.140515,757.903215 C325.849185,751.774413 309.919095,740.331437 292.38642,720.622251 L290.98175,719.030044 L289.827652,717.703816 C286.476679,713.830087 282.949181,709.554315 278.466472,703.978126 L265.116259,687.306255 C264.389002,686.403224 263.762192,685.627238 263.287203,685.042819 L261.171001,682.449972 C249.612512,668.349282 239.328599,656.833313 227.559937,645.193907 L226.485892,644.135364 C205.519872,623.543737 188.170822,609.742668 174.724185,602.787511 C167.08667,598.837072 161.496704,597.376579 157.543179,597.801218 Z M167.18293,648.730846 L167.085525,648.950298 L167.93145,652.695298 L168.80488,656.504566 C174.916589,682.967558 182.98629,714.005517 193.013951,749.618451 L193.194397,749.575526 C197.6801,767.518337 202.753211,781.786463 208.330851,792.322005 C212.315678,799.8489 227.868246,814.590671 240.954362,822.068451 C247.67482,825.908713 253.140469,827.554783 256.092356,827.070371 C256.821709,826.950682 257.168968,826.751799 257.55805,826.257012 C258.406269,825.178352 259.164791,823.084465 259.566513,819.790339 C261.815907,801.345308 256.49226,771.461031 245.484541,741.582936 C233.755505,709.746982 217.254169,682.139584 199.803325,666.433824 L198.679919,665.429315 C186.963604,655.022106 177.756442,649.02898 171.678625,647.416498 L171.201073,647.292686 L170.751287,647.18374 C168.605834,646.688748 167.975256,646.956311 167.18293,648.730846 Z M800.536506,752.67465 L800.04355,753.035013 C798.876103,753.885041 797.67666,754.723614 796.445583,755.550898 C780.975575,765.946744 760.581237,774.600815 734.404588,782.567621 C711.313542,789.595331 650.133536,792.65988 580.941447,789.932405 C506.191059,786.985828 431.006043,777.919675 367.032482,762.897248 C367.000505,770.21185 367.659298,776.172608 368.95524,780.72899 L369.075162,781.140527 C370.766816,786.807567 374.97724,795.390914 381.665119,806.63799 C458.534812,817.548165 532.810526,823.000883 604.492972,823.000883 C676.627112,823.000883 733.06201,814.519337 773.678096,797.757143 L773.703,797.819 L779.996845,792.425079 C785.138691,788.017575 789.193731,782.482637 791.846162,776.251323 C795.345201,768.031087 798.241981,760.172196 800.536506,752.67465 Z M802.660034,648.454188 L392.08043,705.184883 L372.818295,743.710224 C435.16178,758.24218 508.640649,767.066855 581.729213,769.947925 C648.760837,772.590237 708.295481,769.608106 728.581356,763.434144 C775.905603,749.031112 802.40373,732.337035 808.622133,710.914773 C808.905314,708.731539 809.176828,706.548486 809.435931,704.365433 L809.792411,701.294853 C811.039307,690.292789 809.988755,679.151675 806.707243,668.576618 L802.492972,655.000883 L802.660034,648.454188 Z M283.755897,121.927254 L282.842924,122.5873 C233.598308,158.299573 174.861349,215.361817 161.492972,309.000883 L160.796107,313.844652 L159.110967,325.463671 C151.390428,378.960989 140.92364,459.831121 154.754906,577.953698 C163.293133,576.9332 173.11222,579.436732 183.912644,585.023158 C199.466007,593.068001 218.233329,607.997297 240.500052,629.866401 C253.663625,642.79491 264.941841,655.437303 277.709458,671.080332 L281.671352,675.977827 L294.046554,691.437742 L295.561986,693.318167 L297.542117,695.758422 C300.73455,699.67472 303.416071,702.869511 306.006917,705.829802 L306.767004,706.694504 C322.287462,724.27389 335.364758,733.747396 352.934269,738.757068 L373.469401,697.686806 C300.31416,617.217289 252.042496,529.758889 228.783556,435.394048 C211.694329,366.060613 213.863428,292.24451 233.010947,225.975082 C244.714967,185.467554 262.306694,149.643045 283.755897,121.927254 Z M749.084042,667.716444 L750.261131,668.255914 L751.453531,668.81254 C754.564681,670.279329 757.127168,671.605735 759.141019,672.791696 L759.492972,673.000883 C761.744877,674.352026 764.939276,676.520649 769.076168,679.506754 C771.083598,680.958922 771.726133,683.661887 770.585841,685.8615 C755.741119,714.492354 731.043698,731.205586 696.492972,736.000883 C661.992576,740.789194 597.989756,736.425349 504.48451,722.909348 L498.752418,722.074732 C494.014287,721.379904 489.560098,719.389994 485.88108,716.32446 L481.151172,712.385704 C479.452919,710.972824 479.221578,708.450752 480.634459,706.752498 C481.332038,705.914022 482.341763,705.396772 483.42981,705.320529 L489.06612,704.926126 L496.229667,704.415556 C551.78715,700.41399 594.255746,696.363077 623.635448,692.262677 L625.492972,692.000883 C658.355379,687.323387 698.463962,679.128327 745.818723,667.415704 C746.909974,667.145413 748.060392,667.251657 749.084042,667.716444 Z M249.11764,433.482819 L248.437,431.549 L248.202388,430.607717 C270.749479,522.084484 317.741917,606.979943 389.310723,685.377733 L518.797238,667.487333 C493.480669,664.229103 468.062805,657.268582 443.176098,646.676134 C370.793382,615.868117 308.193108,556.550069 268.890739,479.414827 C261.230045,464.379867 254.637268,449.026693 249.11764,433.482819 Z M375.677426,83.2559527 C314.690928,114.330126 272.116117,172.320509 255.507644,244.581286 C238.950262,316.619769 249.516534,397.337024 286.71087,470.335017 C323.905205,543.33301 382.996137,599.325716 451.008678,628.27367 C519.231091,657.310952 591.171142,656.953099 652.157641,625.878926 C685.644454,608.816542 713.580234,583.639053 734.714334,552.439931 L735.35,551.493 L734.552837,552.201161 C724.385454,561.128983 712.852877,568.287244 700.579782,573.356269 L700.626747,573.497169 C699.912304,573.732935 699.199609,573.965764 698.488664,574.195656 C691.951575,576.753306 685.216818,578.719826 678.377337,580.049287 L678.130198,580.096991 C619.259736,595.08765 573.736402,587.734838 542.496724,557.145987 C490.324396,506.060582 455.269262,432.138632 444.567918,345.222887 C432.965831,250.991356 439.191707,182.423267 467.112991,139.544151 C484.28123,113.178642 518.010037,95.0529783 568.04121,84.5219234 C571.519351,83.529096 575.169494,82.6585392 579.11439,81.8477538 C578.352715,81.5147696 577.589971,81.1862093 576.826389,80.8612083 C508.603976,51.8239267 436.663925,52.1817795 375.677426,83.2559527 Z M799.785803,386.882657 L799.827614,388.44273 C800.470654,415.877482 797.810441,442.966701 791.819205,469.033599 C791.606014,469.961157 791.388798,470.886605 791.167571,471.809917 L802.505361,485.415628 C804.436622,487.733565 805.423882,490.693928 805.270499,493.707078 L805.210604,494.858859 C804.158466,514.749725 802.304953,531.209584 799.650066,544.238437 L799.492972,545.000883 C796.707797,558.369722 791.045075,577.727668 782.504696,603.074683 C781.249287,606.800314 778.248539,609.674707 774.472378,610.768777 L772.067602,611.461399 L769.614887,612.159065 C760.501312,614.733539 753.113112,616.614937 747.450285,617.80326 L746.492972,618.000883 C739.513127,619.417083 729.452482,620.89885 716.311084,622.44658 C713.181988,622.814548 710.033701,621.937133 707.545974,620.003779 C705.878893,618.707503 704.404712,617.514328 703.123166,616.424595 C690.260193,626.896084 676.266125,636.041564 661.237451,643.699056 C657.204271,645.754064 653.12819,647.6858 649.012846,649.494669 L803.272162,628.179926 L803.455974,623.118466 L803.588725,619.730911 C803.878193,612.581833 804.179608,606.671824 804.492972,602.000883 L804.939968,595.447037 L805.509384,587.380426 C807.698207,556.913972 809.929804,531.700089 811.276052,512.20984 L811.492972,509.000883 C812.623244,491.881817 812.215236,467.494407 810.268948,435.838651 L810.126335,433.551238 C809.728772,427.253937 808.736081,421.008399 807.161541,414.898172 L805.813112,409.68469 L804.383402,404.199371 C802.807767,398.17901 801.275234,392.406772 799.785803,386.882657 Z M753.25649,569.152805 C745.913917,570.447499 740.81678,576.347103 741.871716,582.329941 C742.926651,588.312778 749.734177,592.113269 757.07675,590.818576 C764.419323,589.523882 769.516461,583.624277 768.461525,577.64144 C767.406589,571.658603 760.599064,567.858111 753.25649,569.152805 Z M731.824301,401.804327 L731.52582,402.102494 C713.144565,420.373426 685.005393,433.194982 647.479597,440.801562 L644.510577,441.398767 C600.627143,450.156885 563.730503,454.446036 533.734074,454.228154 C550.822849,494.864587 572.240863,527.341834 595.75026,546.200476 C605.331447,553.886261 616.222197,558.810635 628.271933,561.275877 C635.621946,560.052626 644.689104,557.298414 653.764184,553.120418 C670.172325,545.566419 685.376105,534.144383 697.864173,518.810933 C712.986493,500.24302 723.601558,476.631564 728.623015,447.534628 C731.054868,433.443205 732.148602,418.20932 731.824301,401.804327 Z M494.220747,138.219083 L493.647508,138.764217 C489.804907,142.451207 486.547332,146.350532 483.872953,150.457614 C459.200289,188.347778 453.344482,252.840143 464.418027,342.778878 C474.578956,425.305405 507.641683,495.025898 556.48922,542.855778 C563.282307,549.507342 570.994551,554.8329 579.64324,558.815977 C536.370226,521.615294 501.605275,446.280639 484.631029,358.955713 C475.472291,311.838093 471.466086,261.948209 474.059052,220.365093 C476.221059,185.693225 482.759801,157.680059 494.220747,138.219083 Z M770.343315,537.145209 C763.544636,538.343999 758.84954,543.945402 759.856524,549.656293 C760.863508,555.367183 767.191248,559.024962 773.989926,557.826172 C780.788605,556.627381 785.483701,551.025978 784.476717,545.315088 C783.469733,539.604198 777.141993,535.946418 770.343315,537.145209 Z M597.144455,99.7766163 L596.499857,99.7933697 C588.239202,101.001946 580.402195,102.378339 572.987733,103.919792 C568.940986,105.109783 565.161178,106.513974 561.334285,108.301899 C584.645696,111.063968 610.557525,121.369692 634.594171,138.830333 C683.910461,174.654549 722.030226,236.16098 741.244763,320.786708 C762.82533,415.833033 750.806438,485.476748 713.371772,531.440833 C705.284692,541.370538 696.206098,549.89327 686.44103,557.01468 C688.200282,556.480563 689.975583,555.925331 691.765371,555.349718 C713.791624,546.579928 733.178026,529.703477 744.594543,507.438212 C768.015998,461.760103 771.52455,388.422246 755.560132,306.292431 L755.30969,305.025772 L755.0458,303.735676 C751.205966,285.27891 744.87184,268.219094 732.712272,240.83191 L726.043884,225.891216 L724.334577,222.016328 C690.271283,144.325035 642.87504,99.0637585 597.144455,99.7766163 Z M781.794471,504.586925 C775.811634,505.641861 771.700163,510.685733 772.611244,515.852729 C773.522324,521.019725 779.110949,524.353208 785.093786,523.298273 C791.076624,522.243337 795.188095,517.199465 794.277014,512.032469 C793.365933,506.865473 787.777308,503.53199 781.794471,504.586925 Z M527.168175,131.422708 L526.800913,131.579009 L524.394022,133.489126 L522.739923,134.809571 C490.863178,160.310966 484.919792,255.624408 504.263573,355.139533 C509.699723,383.106101 517.028646,409.736064 525.848875,434.050145 C556.136076,435.216957 595.395804,430.95234 643.506348,421.200203 C689.095447,411.959169 717.520706,395.101499 729.716698,371.217196 C728.048881,356.680398 725.404964,341.351293 721.741181,325.215057 C703.559372,245.137728 668.061209,187.861265 622.83979,155.011634 C604.267183,141.520167 584.810611,132.875481 566.472381,129.35399 C550.957643,126.374695 537.095113,127.277266 527.168175,131.422708 Z" id="Shape" fill="#000000"></path>
    </g>
</svg>